<?xml version="1.0" encoding="UTF-8"?>
<svg version="1.1" xmlns="http://www.w3.org/2000/svg" width="1151" height="914">
<path d="M0 0 C379.83 0 759.66 0 1151 0 C1151 301.62 1151 603.24 1151 914 C771.17 914 391.34 914 0 914 C0 612.38 0 310.76 0 0 Z " fill="#000000" transform="translate(0,0)"/>
<path d="M0 0 C0.33 0 0.66 0 1 0 C1 6.6 1 13.2 1 20 C1.99 20.33 2.98 20.66 4 21 C4.47284424 21.50917969 4.94568848 22.01835937 5.43286133 22.54296875 C7.93957106 24.87355665 10.21829727 24.34147336 13.49755859 24.23046875 C16.79698721 23.92659942 19.9590989 23.29021096 23.19165039 22.57617188 C32.98552722 20.42306994 42.53918149 19.56426492 52.5625 19.5 C53.70243408 19.48195313 54.84236816 19.46390625 56.0168457 19.4453125 C64.24826059 19.5026951 71.27530389 21.20692549 79 24 C79 24.66 79 25.32 79 26 C79.886875 26.061875 80.77375 26.12375 81.6875 26.1875 C85.91733339 27.2250063 87.27254582 28.62656982 90 32 C93.63349527 38.14524032 95.14043338 43.08012917 95.0625 50.25 C95.05347656 51.32765625 95.04445313 52.4053125 95.03515625 53.515625 C95.02355469 54.33546875 95.01195312 55.1553125 95 56 C92.88798535 52.83197803 92.17834846 50.34309835 91.1875 46.6875 C89.50941718 41.19559258 88.3977139 37.72849657 84 34 C78.90180849 31.36977725 73.72691773 29.60283345 68 29 C68.70125 29.680625 69.4025 30.36125 70.125 31.0625 C76.40984991 37.40091397 81.91718991 43.17619016 82.5 52.5625 C81.89342266 65.58660043 74.15388045 78.40217319 68.5625 89.9375 C62.27825491 102.92564648 62.27825491 102.92564648 56.46484375 116.12890625 C55.98523193 117.26529541 55.50562012 118.40168457 55.01147461 119.57250977 C52.90958696 126.69498159 53.8123174 133.35334267 57 140 C62.80707119 149.27902381 70.27295106 155.50879626 81 158 C83.67479896 158.45395922 86.29448602 158.75404418 89 159 C89 159.66 89 160.32 89 161 C76.66769471 161.76282301 68.69227295 159.14766761 59.2578125 151.1328125 C52.17567637 144.44276695 46.97810498 136.06958365 46.5 126.125 C47.12124849 115.70944765 52.14464779 106.14480015 56.71575928 96.95675659 C57.64833501 95.07798928 58.56831858 93.1935206 59.48486328 91.30688477 C61.85153939 86.43542443 64.22421393 81.56717167 66.62695312 76.71337891 C68.06487837 73.79810144 69.47307165 70.87021611 70.875 67.9375 C71.50849365 66.68380615 71.50849365 66.68380615 72.15478516 65.40478516 C75.45104496 58.41055576 76.64172462 50.81074796 74.09277344 43.34155273 C71.30317999 37.33996058 66.76124479 34.02087742 61 31 C60.01 30.67 59.02 30.34 58 30 C58.04125 31.19625 58.0825 32.3925 58.125 33.625 C58.13851708 37.42329953 57.42009753 40.44975618 56 44 C56.59167969 44.15855469 57.18335938 44.31710937 57.79296875 44.48046875 C63.03567475 46.02847819 66.62223201 47.46112427 70 52 C70.8125 55.3125 70.8125 55.3125 71 58 C69.53515625 56.73046875 68.0703125 55.4609375 66.60546875 54.19140625 C63.54484263 51.92013869 60.76692041 51.89637376 57.10546875 51.9296875 C56.14962891 51.919375 55.19378906 51.9090625 54.20898438 51.8984375 C52.20642522 51.88290375 50.20354462 51.89044469 48.20117188 51.921875 C41.06988997 51.78777433 41.06988997 51.78777433 38.05566406 49.56835938 C35.17391753 46.316886 33.11422296 42.72894174 31.375 38.75 C29.77959942 35.10660292 28.59187214 32.86682828 25 31 C22.15521495 30.70354945 19.47135886 30.53423456 16.625 30.5 C10.24366418 30.42244904 5.36126661 29.94697096 0.3203125 25.52734375 C-2.86758394 21.28723313 -3.63476699 17.92916594 -3.375 12.64453125 C-2.75424637 8.2669249 -1.48517274 4.15494756 0 0 Z " fill="#C14241" transform="translate(477,324)"/>
<path d="M0 0 C3.37696533 3.37696533 3.21220009 6.73565665 3.3125 11.3125 C3.26671391 15.42866945 3.08341343 17.80648085 1.4375 21.625 C-4.33726017 27.25168939 -10.61475616 27.43235024 -18.21484375 27.43945312 C-23.09931084 27.57487334 -25.614412 28.45939424 -29 32 C-30.23947428 34.04005841 -30.23947428 34.04005841 -31 36.25 C-31.60963543 37.85615489 -32.28839744 39.43634701 -33 41 C-33.25201172 41.6791748 -33.50402344 42.35834961 -33.76367188 43.05810547 C-34.93142786 45.58245322 -35.89969492 47.15842816 -38 49 C-42.50294289 50.00715617 -46.90809435 49.79919242 -51.5 49.625 C-59.59107611 48.90840497 -59.59107611 48.90840497 -66.95703125 51.35839844 C-68.53147197 53.14409742 -68.53147197 53.14409742 -70 56 C-70.33 55.01 -70.66 54.02 -71 53 C-66.50127024 45.398698 -66.50127024 45.398698 -62.6171875 44.3671875 C-61.25980469 44.12355469 -61.25980469 44.12355469 -59.875 43.875 C-58.50988281 43.62363281 -58.50988281 43.62363281 -57.1171875 43.3671875 C-56.06917969 43.18542969 -56.06917969 43.18542969 -55 43 C-55.309375 42.195625 -55.61875 41.39125 -55.9375 40.5625 C-57.18565517 36.37750913 -57.6337696 32.33693899 -58 28 C-65.6501425 30.85005309 -69.71925566 34.96734859 -74 42 C-77.69001947 53.07005842 -71.8730314 63.42428403 -66.984375 73.21875 C-65.91052759 75.31469712 -64.83229357 77.40840176 -63.75 79.5 C-59.49645347 87.85803715 -55.42889181 96.24715912 -51.75 104.875 C-51.1945752 106.1753418 -51.1945752 106.1753418 -50.62792969 107.50195312 C-47.06410948 115.99635104 -45.06518321 124.61691285 -47.8359375 133.7578125 C-51.7074574 142.04650277 -57.92382172 149.57733094 -66 154 C-66.66 154 -67.32 154 -68 154 C-68 154.66 -68 155.32 -68 156 C-81.5773447 160.58952497 -81.5773447 160.58952497 -87.1953125 157.98046875 C-88.08863281 157.49513672 -88.08863281 157.49513672 -89 157 C-88.39414062 156.98582031 -87.78828125 156.97164062 -87.1640625 156.95703125 C-75.92158544 156.31707486 -67.60609519 151.14617296 -60 143 C-55.13216432 136.59862182 -53.30037572 130.79891522 -53.42578125 122.734375 C-54.55976148 115.35964646 -58.1687626 108.88577306 -61.42382812 102.23681641 C-64.27864244 96.37418812 -67.03963732 90.46721613 -69.81051636 84.5645752 C-70.79072585 82.48372356 -71.77934643 80.40705809 -72.76977539 78.33105469 C-84.08952526 54.49617189 -84.08952526 54.49617189 -81.375 44.7578125 C-78.80244525 38.11970247 -74.05815534 31.26157615 -67.75 27.74609375 C-67.1725 27.49988281 -66.595 27.25367188 -66 27 C-73.99002733 27.50730332 -80.7392234 28.77856912 -86.58984375 34.55859375 C-89.64639564 38.41017868 -90.66721526 42.66618996 -91.8125 47.375 C-92.02841797 48.20644531 -92.24433594 49.03789062 -92.46679688 49.89453125 C-92.99218638 51.92603735 -93.49811484 53.96255983 -94 56 C-94.33 56 -94.66 56 -95 56 C-95.36072371 46.58110308 -95.20372807 37.58233431 -89 30 C-88.59007812 29.46375 -88.18015625 28.9275 -87.7578125 28.375 C-83.6301949 23.52446632 -79.17035856 22.7072743 -73 22 C-73 21.34 -73 20.68 -73 20 C-65.0405922 17.81029392 -57.47487346 17.70094509 -49.25 17.75 C-47.96867188 17.74226563 -46.68734375 17.73453125 -45.3671875 17.7265625 C-23.2285315 17.7714685 -23.2285315 17.7714685 -20 21 C-17.54288833 21.20747626 -15.14836971 21.32435535 -12.6875 21.375 C-12.01009766 21.41238281 -11.33269531 21.44976562 -10.63476562 21.48828125 C-7.09281613 21.55060294 -5.32586315 21.26832712 -2.56640625 18.99609375 C-0.54660821 15.13278927 -0.33454488 11.98776026 -0.25 7.6875 C-0.20552734 6.57665039 -0.20552734 6.57665039 -0.16015625 5.44335938 C-0.08994155 3.62947954 -0.04264952 1.81473722 0 0 Z " fill="#BA5657" transform="translate(676,326)"/>
<path d="M0 0 C6.93 0 13.86 0 21 0 C21 0.66 21 1.32 21 2 C22.0828125 2.37125 22.0828125 2.37125 23.1875 2.75 C28.47257938 5.09892417 28.47257938 5.09892417 31 8 C31.69603214 12.15269146 31.55895107 16.23910332 31.4375 20.4375 C31.43169922 21.56994141 31.42589844 22.70238281 31.41992188 23.86914062 C31.27610754 33.63125787 31.27610754 33.63125787 29 38 C25.875 39.8125 25.875 39.8125 23 41 C23.38511471 44.51143818 23.38511471 44.51143818 25.34375 47.296875 C27.57232559 49.58852349 28.75911853 52.08426393 30.1875 54.9375 C30.71730469 55.97777344 31.24710937 57.01804687 31.79296875 58.08984375 C33 61 33 61 33 65 C30.69 65 28.38 65 26 65 C24.82866942 62.54379149 23.66278278 60.08525083 22.5 57.625 C22.16613281 56.92632813 21.83226562 56.22765625 21.48828125 55.5078125 C19 50.2265625 19 50.2265625 19 48 C18.34 48 17.68 48 17 48 C16.34 46.35 15.68 44.7 15 43 C12.36 42.67 9.72 42.34 7 42 C7 49.59 7 57.18 7 65 C4.69 65 2.38 65 0 65 C0 43.55 0 22.1 0 0 Z " fill="#C24342" transform="translate(337,554)"/>
<path d="M0 0 C3.3 0 6.6 0 10 0 C12.10717968 4.67808859 13.71579759 9.19291264 15.0078125 14.17578125 C15.17876434 14.82701462 15.34971619 15.47824799 15.52584839 16.1492157 C16.0640216 18.20234789 16.59494257 20.2572591 17.125 22.3125 C17.66333851 24.38527163 18.20323661 26.45761393 18.74557495 28.52934265 C19.23353176 30.39542495 19.71674424 32.26274592 20.19970703 34.13012695 C20.87803656 36.91484343 20.87803656 36.91484343 22 39 C22.2266333 38.13834229 22.4532666 37.27668457 22.68676758 36.38891602 C23.53990697 33.15098781 24.39568208 29.91377909 25.25317383 26.67700195 C25.62172326 25.283721 25.98926116 23.89017203 26.35571289 22.49633789 C28.34940899 14.91594085 30.40175299 7.40131563 33 0 C36.63 0 40.26 0 44 0 C44 21.45 44 42.9 44 65 C41.69 65 39.38 65 37 65 C36.67 48.5 36.34 32 36 15 C33.50053517 24.42213477 33.50053517 24.42213477 31.00463867 33.84521484 C29.1193394 40.93363378 27.1768527 47.99439729 25 55 C22.69 55 20.38 55 18 55 C17.86948242 54.4423999 17.73896484 53.8847998 17.60449219 53.31030273 C14.97302377 34.5157546 14.97302377 34.5157546 8 18 C7.67 33.51 7.34 49.02 7 65 C4.69 65 2.38 65 0 65 C0 43.55 0 22.1 0 0 Z " fill="#C24343" transform="translate(546,554)"/>
<path d="M0 0 C3.96 0 7.92 0 12 0 C14.63019245 9.60153779 17.05747641 19.22358544 19.23754883 28.93676758 C19.69307058 30.96226989 20.15589632 32.98601717 20.61914062 35.00976562 C22.05189638 41.32953295 23.26667403 47.56123681 24 54 C24.33 54.33 24.66 54.66 25 55 C25.07179964 56.51928038 25.08392007 58.04167482 25.0625 59.5625 C25.05347656 60.38878906 25.04445313 61.21507812 25.03515625 62.06640625 C25.02355469 62.70449219 25.01195312 63.34257813 25 64 C22.69 64 20.38 64 18 64 C15.71635333 58.43361124 16 55.63726652 16 49 C9.4 49 2.8 49 -4 49 C-4 52.3 -4 55.6 -4 59 C-4.66 59 -5.32 59 -6 59 C-6 60.65 -6 62.3 -6 64 C-8.31 64 -10.62 64 -13 64 C-13.05449838 62.27119018 -13.09301688 60.54187288 -13.125 58.8125 C-13.14820313 57.84957031 -13.17140625 56.88664063 -13.1953125 55.89453125 C-12.98979052 52.84869555 -12.19482775 50.78486775 -11 48 C-10.87625 46.783125 -10.7525 45.56625 -10.625 44.3125 C-10.28569962 41.09212268 -9.49587169 38.5828364 -8.1875 35.625 C-3.47143159 24.5122279 -1.82370261 11.85406696 0 0 Z " fill="#BA4040" transform="translate(717,555)"/>
<path d="M0 0 C3.96 0 7.92 0 12 0 C13.71121754 4.52150975 14.35223612 8.55617153 14.625 13.375 C14.69976562 14.62023437 14.77453125 15.86546875 14.8515625 17.1484375 C14.90054687 18.08945312 14.94953125 19.03046875 15 20 C15.66 20 16.32 20 17 20 C17 21.32 17 22.64 17 24 C17.66 24 18.32 24 19 24 C19.09796875 25.10214844 19.1959375 26.20429687 19.296875 27.33984375 C20.15174212 36.22907976 21.41482491 44.78020424 23.67871094 53.42749023 C24.6125504 57.03971897 25.21680766 60.26368132 25 64 C23.02 64 21.04 64 19 64 C17.47261162 59.41783485 17.39602418 54.80886509 17 50 C10.07 49.67 3.14 49.34 -4 49 C-4.66 53.95 -5.32 58.9 -6 64 C-8.31 64 -10.62 64 -13 64 C-12.32687001 55.74051306 -10.49419882 47.80297101 -8.625 39.75 C-8.31725119 38.40765681 -8.00995697 37.06520931 -7.703125 35.72265625 C-6.52865526 30.59285633 -5.34205489 25.46593557 -4.14624023 20.34106445 C-3.88270752 19.20886475 -3.6191748 18.07666504 -3.34765625 16.91015625 C-2.99973022 15.42334351 -2.99973022 15.42334351 -2.64477539 13.90649414 C-1.62159488 9.29423969 -0.8067919 4.65456868 0 0 Z " fill="#C24343" transform="translate(483,555)"/>
<path d="M0 0 C3.51914575 2.74178221 4.60833329 6.63740397 6.0625 10.6875 C6.31837891 11.37005859 6.57425781 12.05261719 6.83789062 12.75585938 C9.94116657 21.20410932 11.33783618 28.59277434 11.25 37.625 C11.24613281 38.59993408 11.24226562 39.57486816 11.23828125 40.5793457 C11.17519307 45.86955248 10.86450494 50.95724512 10 56.1875 C7.18007745 72.05511668 7.18007745 72.05511668 11.625 86.8125 C12.17027344 87.46347656 12.71554687 88.11445313 13.27734375 88.78515625 C22.50778268 100.65286344 24.23776584 116.17568436 24.3125 130.625 C24.31813965 131.69347168 24.3237793 132.76194336 24.32958984 133.86279297 C24.25639343 141.61540986 24.25639343 141.61540986 22 145 C20.59276917 140.21541516 19.8752304 135.86129853 19.625 130.875 C19.03983958 122.03599789 16.92701225 113.38364573 12.8125 105.5 C11.09666613 102.18666563 10.36824911 99.68249109 10 96 C9.34 96 8.68 96 8 96 C7.60039063 94.99453125 7.20078125 93.9890625 6.7890625 92.953125 C5.06130431 88.92101248 2.81325655 85.38378879 0.375 81.75 C-3.875 75.375 -3.875 75.375 -5 72 C-6.30718895 71.28342533 -7.64549935 70.62253531 -9 70 C-15.85786293 65.02274691 -23.43138883 57.63728936 -25 49 C-25.66 49 -26.32 49 -27 49 C-29.79961538 40.60115385 -28.73209831 29.98751668 -25 22 C-23.23387892 19.11769039 -21.39933564 16.39265225 -19 14 C-18.34 14 -17.68 14 -17 14 C-17.433125 15.0209375 -17.433125 15.0209375 -17.875 16.0625 C-21.8756409 26.50861789 -22.46533323 36.25956742 -18.51953125 46.92578125 C-14.00335231 56.06262656 -6.56062592 63.73435564 0.3828125 71.07421875 C2 73 2 73 2 75 C2.66 75 3.32 75 4 75 C3.83556396 74.3817334 3.67112793 73.7634668 3.50170898 73.12646484 C2.79612565 68.72953043 2.91819741 64.42137286 2.97265625 59.9765625 C2.98531891 57.96484557 2.99767863 55.95312672 3.00976562 53.94140625 C3.03439117 50.79762636 3.06218913 47.65394946 3.09594727 44.51025391 C3.33458912 26.65989498 3.33458912 26.65989498 1 9 C0.67 8.67 0.34 8.34 0 8 C-0.14115161 5.32941149 -0.04247107 2.67567762 0 0 Z " fill="#B76365" transform="translate(684,227)"/>
<path d="M0 0 C2.31 0 4.62 0 7 0 C11.06461455 4.06461455 12.6875074 10.71631108 14.75 16 C16.87301549 21.4053986 19.2212182 26.64832039 21.75 31.875 C24.31275233 37.1924531 26.07718803 42.15552417 27 48 C27.66 48 28.32 48 29 48 C29 32.16 29 16.32 29 0 C31.31 0 33.62 0 36 0 C36 21.45 36 42.9 36 65 C33.69 65 31.38 65 29 65 C26.5260786 61.02405489 24.65331748 57.24333639 23.125 52.8125 C21.69236643 48.68944828 20.00217402 44.87858334 18 41 C14.04829476 33.30614965 11.2256462 25.34617325 9 17 C8.34 17 7.68 17 7 17 C7 32.84 7 48.68 7 65 C4.69 65 2.38 65 0 65 C0 43.55 0 22.1 0 0 Z " fill="#BF4241" transform="translate(915,554)"/>
<path d="M0 0 C0.33 0 0.66 0 1 0 C0.19013062 8.09869376 0.19013062 8.09869376 -0.51171875 11.42578125 C-4.57772784 30.89071838 -1.86238144 52.29366668 -1 72 C16.13908298 54.46974249 16.13908298 54.46974249 22.5 31.5 C22.36322808 25.63070067 21.38734839 21.10184171 18.77734375 15.85546875 C18.52082031 15.24316406 18.26429688 14.63085938 18 14 C18.33 13.34 18.66 12.68 19 12 C22 16 22 16 25 20 C25.54011719 20.64453125 26.08023438 21.2890625 26.63671875 21.953125 C30.51466491 27.77560003 29.51066626 36.33215775 29 43 C26.64184467 53.25655513 19.9154887 60.41117984 12.1875 67.125 C4.97978933 73.41768037 -2.95738369 82.44221993 -5 92 C-5.66 92 -6.32 92 -7 92 C-7.27972656 92.85335937 -7.55945313 93.70671875 -7.84765625 94.5859375 C-8.98536521 97.95664135 -10.20609222 101.28753967 -11.4375 104.625 C-13.43475668 110.182073 -15.03200719 115.7123143 -16.3828125 121.45703125 C-17.08930973 124.36797872 -18.05315162 127.15945486 -19 130 C-19.71882283 132.9893115 -20.37135747 135.99054108 -21 139 C-23.572573 136.427427 -23.28423438 134.6476265 -23.3293457 131.13549805 C-23.32378662 130.34828369 -23.31822754 129.56106934 -23.3125 128.75 C-23.30758545 127.94022705 -23.3026709 127.1304541 -23.29760742 126.29614258 C-23.0338446 112.55748101 -19.80553847 97.99609224 -11.1875 87.0625 C-5.06161504 78.06635224 -7.27915339 64.73575199 -8.5234375 54.40234375 C-9.36379962 47.3639205 -9.15651153 40.29377249 -9.03710938 33.21777344 C-9.00613609 31.36671212 -8.99304619 29.51536263 -8.984375 27.6640625 C-8.62108654 18.1926133 -5.26771559 7.90157338 0 0 Z " fill="#B84747" transform="translate(468,228)"/>
<path d="M0 0 C2.31 0 4.62 0 7 0 C8 1 8 1 8.11352539 3.68383789 C8.10828857 4.85164795 8.10305176 6.01945801 8.09765625 7.22265625 C8.09443359 8.48271484 8.09121094 9.74277344 8.08789062 11.04101562 C8.07953403 12.38151109 8.07106907 13.72200588 8.0625 15.0625 C8.0574866 16.40689942 8.05292342 17.7513006 8.04882812 19.09570312 C8.03699497 22.39715433 8.01905886 25.6985826 8 29 C13.94 29 19.88 29 26 29 C25.98839844 26.99035156 25.97679687 24.98070312 25.96484375 22.91015625 C25.9578926 20.97078576 25.95097604 19.03141497 25.94506836 17.09204102 C25.94002943 15.74079614 25.93319823 14.38955674 25.92456055 13.03833008 C25.91247581 11.09979566 25.90730172 9.161222 25.90234375 7.22265625 C25.89710693 6.05484619 25.89187012 4.88703613 25.88647461 3.68383789 C26 1 26 1 27 0 C29.31 0 31.62 0 34 0 C34 21.45 34 42.9 34 65 C31.69 65 29.38 65 27 65 C27 55.1 27 45.2 27 35 C20.4 35 13.8 35 7 35 C7 44.9 7 54.8 7 65 C4.69 65 2.38 65 0 65 C0 43.55 0 22.1 0 0 Z " fill="#B94040" transform="translate(632,554)"/>
<path d="M0 0 C2.625 1.625 2.625 1.625 4.625 3.625 C4.8615132 6.21910697 4.97725771 8.70308796 4.99609375 11.30078125 C5.00963646 12.44404121 5.00963646 12.44404121 5.02345276 13.61039734 C5.03797237 15.22516951 5.04684625 16.84000075 5.05053711 18.45483398 C5.06240688 20.91817447 5.11154594 23.37898754 5.16210938 25.84179688 C5.17157686 27.41144612 5.17881034 28.98111074 5.18359375 30.55078125 C5.20312607 31.28428299 5.22265839 32.01778473 5.24278259 32.77351379 C5.20822552 36.71888979 4.7677358 38.4461015 2.27758789 41.56713867 C-1.9809191 44.87086213 -6.12420597 45.21750205 -11.375 44.625 C-14.375 43.25 -14.375 43.25 -16.375 41.625 C-16.375 40.965 -16.375 40.305 -16.375 39.625 C-17.035 39.625 -17.695 39.625 -18.375 39.625 C-18.44935222 34.87446489 -18.50369691 30.12427113 -18.53979492 25.37329102 C-18.55484876 23.75832211 -18.57529648 22.14339387 -18.60131836 20.52856445 C-18.63785286 18.20253445 -18.65476015 15.87704659 -18.66796875 13.55078125 C-18.68345261 12.83287918 -18.69893646 12.11497711 -18.71488953 11.37532043 C-18.71637024 6.92960625 -18.0761749 4.17629086 -15.375 0.625 C-10.85610191 -2.88969851 -4.94450571 -2.01442825 0 0 Z " fill="#9C2521" transform="translate(317.375,660.375)"/>
<path d="M0 0 C2.37173132 2.02573757 2.98132498 2.94397495 4 6 C4.068991 8.06145107 4.08467727 10.12501401 4.0625 12.1875 C4.05347656 13.27417969 4.04445312 14.36085938 4.03515625 15.48046875 C4.02355469 16.31191406 4.01195312 17.14335938 4 18 C1.69 18 -0.62 18 -3 18 C-3.01417969 17.24074219 -3.02835938 16.48148438 -3.04296875 15.69921875 C-3.12440628 9.70915043 -3.12440628 9.70915043 -6.0625 4.8125 C-11.41968852 3.33072445 -16.03480492 3.22435642 -21 6 C-21.80232812 10.65548415 -22.011783 14.43344709 -19.3828125 18.50390625 C-17.01999956 21.12318109 -14.5522712 23.56490624 -12 26 C-11.01567691 26.99751335 -10.03529194 27.99892591 -9.05859375 29.00390625 C-3.87267958 34.4008118 -3.87267958 34.4008118 2 39 C4.12721056 44.38059142 5.05072497 51.29606445 4 57 C2.30318903 60.28143609 0.08493538 62.44997178 -3.2421875 64.13671875 C-9.03342661 65.94955706 -16.37899896 66.20266641 -22.17578125 64.27734375 C-25.52209955 62.22637447 -26.96971502 59.70902593 -28 56 C-28.66 56 -29.32 56 -30 56 C-30 51.71 -30 47.42 -30 43 C-27.36 43 -24.72 43 -22 43 C-21.92652344 44.24716797 -21.92652344 44.24716797 -21.8515625 45.51953125 C-21.77679688 46.60621094 -21.70203125 47.69289063 -21.625 48.8125 C-21.55539063 49.89144531 -21.48578125 50.97039063 -21.4140625 52.08203125 C-21.18804267 55.18626186 -21.18804267 55.18626186 -19 58 C-16.21103437 58.47975754 -16.21103437 58.47975754 -13.0625 58.375 C-12.00160156 58.38273438 -10.94070312 58.39046875 -9.84765625 58.3984375 C-7.03926656 58.21143152 -7.03926656 58.21143152 -5.1640625 56.80078125 C-3.63609959 54.43705339 -3.49405055 52.60837847 -3.3125 49.8125 C-3.24675781 48.91144531 -3.18101562 48.01039063 -3.11328125 47.08203125 C-3.07589844 46.39496094 -3.03851563 45.70789063 -3 45 C-3.66 45 -4.32 45 -5 45 C-5.33 44.01 -5.66 43.02 -6 42 C-7.39779556 40.61742541 -7.39779556 40.61742541 -9.125 39.3125 C-12.54899596 36.48945027 -15.36355535 33.40767938 -18.22265625 30.0234375 C-20.56328106 27.35872618 -23.11300843 24.95038121 -25.71484375 22.54296875 C-27 21 -27 21 -27 18 C-27.66 18 -28.32 18 -29 18 C-29.05441656 16.10448978 -29.09298035 14.2085208 -29.125 12.3125 C-29.14820313 11.25675781 -29.17140625 10.20101562 -29.1953125 9.11328125 C-28.92656016 4.82936893 -28.04732617 2.04732617 -25 -1 C-16.38314669 -4.23131999 -8.30097238 -3.93203955 0 0 Z " fill="#BF4241" transform="translate(230,556)"/>
<path d="M0 0 C2.08450717 0.2831556 4.16758367 0.57685669 6.25 0.875 C7.99023438 1.11863281 7.99023438 1.11863281 9.765625 1.3671875 C12.58193313 1.91820431 14.55217557 2.55796482 17 4 C14.36749612 5.31625194 13.19820944 4.74813658 10.375 4.0625 C9.55773437 3.86785156 8.74046875 3.67320312 7.8984375 3.47265625 C6.95871094 3.23869141 6.95871094 3.23869141 6 3 C6.70125 3.680625 7.4025 4.36125 8.125 5.0625 C14.40984991 11.40091397 19.91718991 17.17619016 20.5 26.5625 C19.89342266 39.58660043 12.15388045 52.40217319 6.5625 63.9375 C0.27825491 76.92564648 0.27825491 76.92564648 -5.53515625 90.12890625 C-6.01476807 91.26529541 -6.49437988 92.40168457 -6.98852539 93.57250977 C-9.09041304 100.69498159 -8.1876826 107.35334267 -5 114 C0.80707119 123.27902381 8.27295106 129.50879626 19 132 C21.67479896 132.45395922 24.29448602 132.75404418 27 133 C27 133.66 27 134.32 27 135 C14.66769471 135.76282301 6.69227295 133.14766761 -2.7421875 125.1328125 C-9.82432363 118.44276695 -15.02189502 110.06958365 -15.5 100.125 C-14.87875151 89.70944765 -9.85535221 80.14480015 -5.28424072 70.95675659 C-4.35166499 69.07798928 -3.43168142 67.1935206 -2.51513672 65.30688477 C-0.14846061 60.43542443 2.22421393 55.56717167 4.62695312 50.71337891 C6.06487837 47.79810144 7.47307165 44.87021611 8.875 41.9375 C9.2973291 41.1017041 9.7196582 40.2659082 10.15478516 39.40478516 C13.45104496 32.41055576 14.64172462 24.81074796 12.09277344 17.34155273 C9.30317999 11.33996058 4.76124479 8.02087742 -1 5 C-1.99 4.67 -2.98 4.34 -4 4 C-4 6.64 -4 9.28 -4 12 C-4.33 12 -4.66 12 -5 12 C-5.33 8.7 -5.66 5.4 -6 2 C-3.03 2.495 -3.03 2.495 0 3 C0 2.01 0 1.02 0 0 Z " fill="#BE3836" transform="translate(539,350)"/>
<path d="M0 0 C9.9 0 19.8 0 30 0 C30 2.31 30 4.62 30 7 C22.74 7 15.48 7 8 7 C8 14.26 8 21.52 8 29 C13.94 29 19.88 29 26 29 C26 31.31 26 33.62 26 36 C20.06 36 14.12 36 8 36 C8 43.59 8 51.18 8 59 C15.26 59 22.52 59 30 59 C30 60.98 30 62.96 30 65 C20.1 65 10.2 65 0 65 C0 43.55 0 22.1 0 0 Z " fill="#B13D3D" transform="translate(408,554)"/>
<path d="M0 0 C14 0 14 0 20 3 C22.8033072 5.8033072 22.3421453 8.48213213 22.37109375 12.23828125 C22.38463646 13.31495308 22.38463646 13.31495308 22.39845276 14.41337585 C22.41297036 15.93398867 22.42184575 17.45466416 22.42553711 18.9753418 C22.43740474 21.29389003 22.48654146 23.60975066 22.53710938 25.92773438 C22.54657726 27.40623703 22.55381055 28.88475602 22.55859375 30.36328125 C22.57812607 31.05303543 22.59765839 31.74278961 22.61778259 32.45344543 C22.58205561 36.2970121 22.09309655 37.88440149 19.65258789 40.91479492 C13.19949402 45.98758597 9.76226455 44 0 44 C0 29.48 0 14.96 0 0 Z " fill="#992420" transform="translate(419,660)"/>
<path d="M0 0 C9.63412143 0.04005872 17.34246877 3.17947002 26 7 C26 7.66 26 8.32 26 9 C26.86109375 9.23589844 27.7221875 9.47179687 28.609375 9.71484375 C32.34821783 11.13198579 35.16555594 13.09101135 38.25 15.5625 C38.81356201 16.00577637 39.37712402 16.44905273 39.95776367 16.90576172 C45.1736932 21.05105696 50.15372095 25.42803864 55 30 C55.72058594 30.66773438 56.44117188 31.33546875 57.18359375 32.0234375 C61.94190121 36.57486203 65.58562042 41.38050027 69 47 C69.391875 47.62003906 69.78375 48.24007812 70.1875 48.87890625 C73.47879179 54.2877571 75.3860724 59.62980536 75 66 C73.22821575 63.34232363 72.35253376 61.33980212 71.3125 58.375 C66.40245442 45.90964444 55.54520078 36.74314553 44.9375 29.0625 C44.11258057 28.46131348 43.28766113 27.86012695 42.43774414 27.24072266 C24.78242731 13.91283414 24.78242731 13.91283414 4 9 C-1.67468354 19.99733956 -5.76357545 30.71524461 -8.49731445 42.79443359 C-8.83023357 44.25513845 -9.18274159 45.71152747 -9.55541992 47.16259766 C-11.05887254 53.23191605 -11.3909033 59.13892487 -11.5625 65.375 C-11.62241841 67.320436 -11.6860513 69.26576215 -11.75390625 71.2109375 C-11.77783447 72.05962402 -11.8017627 72.90831055 -11.82641602 73.78271484 C-12 76 -12 76 -13 79 C-13.66 79 -14.32 79 -15 79 C-15.87287937 73.0006862 -16.15786166 67.18365152 -16.125 61.125 C-16.12234131 60.24674561 -16.11968262 59.36849121 -16.11694336 58.46362305 C-15.99625292 41.99625292 -15.99625292 41.99625292 -14 40 C-13.6957344 38.59013562 -13.43279092 37.17131189 -13.1875 35.75 C-10.66511555 22.92031796 -5.74785028 11.64916257 0 0 Z " fill="#C2595A" transform="translate(462,199)"/>
<path d="M0 0 C5.35773087 10.11720396 9.83486709 19.95800223 13 31 C13.3196875 32.01191406 13.639375 33.02382812 13.96875 34.06640625 C17.72221299 47.95074389 17.62714588 64.92186757 15 79 C14.34 79 13.68 79 13 79 C12.94392578 77.54207031 12.94392578 77.54207031 12.88671875 76.0546875 C12.06135258 57.61014112 10.09434541 40.1571143 3 23 C2.61328125 22.05253906 2.2265625 21.10507813 1.828125 20.12890625 C0.94126793 18.05161412 -0.00297571 16.02591694 -1 14 C-1.45375 12.989375 -1.9075 11.97875 -2.375 10.9375 C-3.86479155 8.7105668 -3.86479155 8.7105668 -6.62890625 8.6953125 C-10.64896052 9.0586546 -13.92589241 10.29414795 -17.5625 11.9375 C-18.61304565 12.40675903 -18.61304565 12.40675903 -19.68481445 12.88549805 C-26.72389354 16.14899119 -32.80893185 20.31838783 -39 25 C-40.11445726 25.82699284 -41.22904234 26.65381345 -42.34375 27.48046875 C-56.00589198 37.70869344 -67.33089661 47.45044352 -73 64 C-73.33 64 -73.66 64 -74 64 C-73.74910451 49.19716607 -63.97163723 38.81422414 -54 29 C-53.1234375 28.12472656 -52.246875 27.24945313 -51.34375 26.34765625 C-37.90794722 13.53912739 -19.40838019 -0.53912167 0 0 Z " fill="#CB888A" transform="translate(691,199)"/>
<path d="M0 0 C2.64 0 5.28 0 8 0 C8 0.66 8 1.32 8 2 C9.98 1.67 11.96 1.34 14 1 C13.67 1.99 13.34 2.98 13 4 C12.67 3.67 12.34 3.34 12 3 C4.3498575 5.85005309 0.28074434 9.96734859 -4 17 C-7.69001947 28.07005842 -1.8730314 38.42428403 3.015625 48.21875 C4.08947241 50.31469712 5.16770643 52.40840176 6.25 54.5 C10.50354653 62.85803715 14.57110819 71.24715912 18.25 79.875 C18.8054248 81.1753418 18.8054248 81.1753418 19.37207031 82.50195312 C22.93589052 90.99635104 24.93481679 99.61691285 22.1640625 108.7578125 C18.2925426 117.04650277 12.07617828 124.57733094 4 129 C3.34 129 2.68 129 2 129 C2 129.66 2 130.32 2 131 C-11.5773447 135.58952497 -11.5773447 135.58952497 -17.1953125 132.98046875 C-18.08863281 132.49513672 -18.08863281 132.49513672 -19 132 C-18.39414062 131.98582031 -17.78828125 131.97164062 -17.1640625 131.95703125 C-5.92158544 131.31707486 2.39390481 126.14617296 10 118 C14.86783568 111.59862182 16.69962428 105.79891522 16.57421875 97.734375 C15.44023852 90.35964646 11.8312374 83.88577306 8.57617188 77.23681641 C5.72135756 71.37418812 2.96036268 65.46721613 0.18948364 59.5645752 C-0.79072585 57.48372356 -1.77934643 55.40705809 -2.76977539 53.33105469 C-14.08952526 29.49617189 -14.08952526 29.49617189 -11.375 19.7578125 C-8.80244525 13.11970247 -4.05815534 6.26157615 2.25 2.74609375 C3.11625 2.37677734 3.11625 2.37677734 4 2 C2.68 1.34 1.36 0.68 0 0 Z " fill="#B13F3F" transform="translate(606,351)"/>
<path d="M0 0 C15 0 15 0 18.9375 1.75 C22.02560737 6.61610858 21.9628488 11.387114 21 17 C19.46484375 19.875 19.46484375 19.875 18 22 C18.64839844 22.36351562 19.29679687 22.72703125 19.96484375 23.1015625 C22 25 22 25 22.56640625 27.9609375 C22.55581367 37.21885647 22.55581367 37.21885647 19.6875 41.25 C12.8601226 45.69573412 9.91743999 44 0 44 C0 29.48 0 14.96 0 0 Z " fill="#9B2520" transform="translate(135,660)"/>
<path d="M0 0 C2.31 0 4.62 0 7 0 C8.3271261 3.9813783 8.06915913 7.85045227 8 12 C8.66 12 9.32 12 10 12 C13.4790136 26.26085873 16.16822525 40.43515685 18 55 C18.66 55 19.32 55 20 55 C20.10957031 53.99582031 20.21914063 52.99164062 20.33203125 51.95703125 C22.64845423 31.64090343 22.64845423 31.64090343 25.98193359 23.64453125 C26.98035975 21.05101755 27.56806773 18.646832 28.0703125 15.91796875 C28.24433594 14.98662109 28.41835938 14.05527344 28.59765625 13.09570312 C28.85869141 11.65614258 28.85869141 11.65614258 29.125 10.1875 C29.30675781 9.20845703 29.48851562 8.22941406 29.67578125 7.22070312 C30.12178851 4.81461131 30.56303717 2.40774786 31 0 C33.31 0 35.62 0 38 0 C37.38311251 5.59605083 36.41389764 10.96135773 35.125 16.4375 C33.72491653 22.53963091 32.48293742 28.63977596 31.4375 34.8125 C29.73121217 44.79531724 27.87075175 54.5996029 24 64 C20.37 64 16.74 64 13 64 C12.03552052 59.93887415 11.07830747 55.8762502 10.125 51.8125 C9.85558594 50.68134766 9.58617187 49.55019531 9.30859375 48.38476562 C6.8063705 37.67402951 5.11240372 26.93863655 4 16 C3.34 16 2.68 16 2 16 C1.34 10.72 0.68 5.44 0 0 Z " fill="#BC4141" transform="translate(772,555)"/>
<path d="M0 0 C9.24 0 18.48 0 28 0 C29 1 29 1 29 7 C21.74 7 14.48 7 7 7 C7 14.26 7 21.52 7 29 C12.94 29 18.88 29 25 29 C25 30.98 25 32.96 25 35 C19.06 35 13.12 35 7 35 C7 42.92 7 50.84 7 59 C14.59 59 22.18 59 30 59 C30 60.98 30 62.96 30 65 C20.1 65 10.2 65 0 65 C0 43.55 0 22.1 0 0 Z " fill="#BD4141" transform="translate(848,554)"/>
<path d="M0 0 C14 0 14 0 20 3 C21.6907922 6.38158441 21.26889059 10.15947812 21.3125 13.875 C21.34150391 14.69097656 21.37050781 15.50695312 21.40039062 16.34765625 C21.46465855 22.40861638 21.46465855 22.40861638 18.98046875 25.5703125 C18.32691406 26.04210937 17.67335938 26.51390625 17 27 C18.30535833 31.35119444 20.04517124 35.1894227 22.1953125 39.16796875 C23 41 23 41 23 44 C21.35 44 19.7 44 18 44 C16.82845707 41.71070947 15.66261926 39.41881638 14.5 37.125 C13.99919922 36.14853516 13.99919922 36.14853516 13.48828125 35.15234375 C11 30.2265625 11 30.2265625 11 28 C9.02 28 7.04 28 5 28 C5 33.28 5 38.56 5 44 C3.35 44 1.7 44 0 44 C0 29.48 0 14.96 0 0 Z " fill="#9D2521" transform="translate(831,660)"/>
<path d="M0 0 C1.98 0 3.96 0 6 0 C8.95997808 6.27175683 11.66356786 12.53779735 13.91015625 19.1015625 C15.4284078 23.13934977 17.24800255 27.05800574 19 31 C19.33 20.77 19.66 10.54 20 0 C21.65 0 23.3 0 25 0 C25 14.52 25 29.04 25 44 C23.02 44 21.04 44 19 44 C13.0653009 30.49807939 13.0653009 30.49807939 11.375 25.125 C9.85268609 20.23396765 9.85268609 20.23396765 6 13 C5.67 23.23 5.34 33.46 5 44 C3.35 44 1.7 44 0 44 C0 29.48 0 14.96 0 0 Z " fill="#8E211D" transform="translate(994,660)"/>
<path d="M0 0 C1.65 0 3.3 0 5 0 C8.13439418 5.92194966 10.78725968 11.80515573 12.91015625 18.1640625 C14.34166693 21.88906877 16.21534908 25.43069816 18 29 C18.33 19.43 18.66 9.86 19 0 C20.65 0 22.3 0 24 0 C24 14.52 24 29.04 24 44 C22.35 44 20.7 44 19 44 C18.68546875 43.2265625 18.3709375 42.453125 18.046875 41.65625 C15.16113499 34.61207296 15.16113499 34.61207296 11.875 27.75 C9.28428288 22.71540803 7.30624611 17.51797422 6 12 C5.34 12 4.68 12 4 12 C4 22.56 4 33.12 4 44 C2.68 44 1.36 44 0 44 C0 29.48 0 14.96 0 0 Z " fill="#9E2621" transform="translate(358,660)"/>
<path d="M0 0 C0.94230469 -0.03738281 1.88460938 -0.07476563 2.85546875 -0.11328125 C7.00857791 0.48472258 8.82631505 1.30892824 11.8125 4.3125 C12.71669908 8.15854628 12.6498155 11.87845175 12.5625 15.8125 C12.58570313 16.85792969 12.60890625 17.90335938 12.6328125 18.98046875 C12.57469162 26.54587059 12.57469162 26.54587059 9.12890625 30.01171875 C5.78538274 31.3231361 3.56536187 31.7664439 0 31.625 C-1.43279297 31.58826172 -1.43279297 31.58826172 -2.89453125 31.55078125 C-5.1875 31.3125 -5.1875 31.3125 -6.1875 30.3125 C-6.28753289 28.17896826 -6.31831048 26.04212458 -6.3203125 23.90625 C-6.32160156 22.60558594 -6.32289063 21.30492187 -6.32421875 19.96484375 C-6.32212402 19.28405762 -6.3200293 18.60327148 -6.31787109 17.90185547 C-6.3125224 15.82121485 -6.3178168 13.74079011 -6.32421875 11.66015625 C-6.32292969 10.35949219 -6.32164062 9.05882812 -6.3203125 7.71875 C-6.31918457 6.51541016 -6.31805664 5.31207031 -6.31689453 4.07226562 C-6.09802444 -0.59586172 -4.22574276 0.10835238 0 0 Z " fill="#150707" transform="translate(349.1875,559.6875)"/>
<path d="M0 0 C1.65 0 3.3 0 5 0 C5 6.6 5 13.2 5 20 C9.29 20 13.58 20 18 20 C18 13.4 18 6.8 18 0 C19.98 0 21.96 0 24 0 C24 14.52 24 29.04 24 44 C22.35 44 20.7 44 19 44 C19 37.4 19 30.8 19 24 C14.38 24 9.76 24 5 24 C5 30.6 5 37.2 5 44 C3.35 44 1.7 44 0 44 C0 29.48 0 14.96 0 0 Z " fill="#96231F" transform="translate(565,660)"/>
<path d="M0 0 C10.56 0 21.12 0 32 0 C32 1.65 32 3.3 32 5 C27.71 5 23.42 5 19 5 C19 24.47 19 43.94 19 64 C17.02 64 15.04 64 13 64 C12.505 35.29 12.505 35.29 12 6 C8.04 5.67 4.08 5.34 0 5 C0 3.35 0 1.7 0 0 Z " fill="#CE4747" transform="translate(269,555)"/>
<path d="M0 0 C0.99 0.66 1.98 1.32 3 2 C3.30441916 4.60077352 3.42017445 6.95983401 3.3984375 9.5625 C3.40274277 10.68313843 3.40274277 10.68313843 3.40713501 11.82641602 C3.40917747 13.40674599 3.40363481 14.98710113 3.39111328 16.56738281 C3.37506089 18.99080764 3.39095439 21.41256474 3.41015625 23.8359375 C3.40817385 25.36979536 3.40433023 26.90365218 3.3984375 28.4375 C3.40754654 29.52816772 3.40754654 29.52816772 3.4168396 30.64086914 C3.38818359 32.68359375 3.38818359 32.68359375 3 36 C-0.69486103 38.46324069 -2.63293092 38.38991688 -7 38 C-8.69384766 36.94555664 -8.69384766 36.94555664 -10 35 C-10.29806912 32.43679306 -10.42066594 30.12114954 -10.3984375 27.55859375 C-10.40130768 26.83511246 -10.40417786 26.11163116 -10.40713501 25.3662262 C-10.40917427 23.83895076 -10.40365392 22.31164913 -10.39111328 20.78442383 C-10.37503282 18.44228025 -10.39097693 16.10185608 -10.41015625 13.75976562 C-10.40817425 12.27603785 -10.40433146 10.79231114 -10.3984375 9.30859375 C-10.40451019 8.60649277 -10.41058289 7.90439178 -10.4168396 7.18101501 C-10.38818359 5.20874023 -10.38818359 5.20874023 -10 2 C-6.31282562 -0.45811625 -4.35654296 -0.31118164 0 0 Z " fill="#030000" transform="translate(314,663)"/>
<path d="M0 0 C6.86068501 0.35606087 11.08933039 1.35137887 15.96875 6.33203125 C19.81986959 11.21146026 19.9415674 16.26284554 19.4609375 22.22265625 C18.3984375 24.72265625 18.3984375 24.72265625 16.4609375 26.22265625 C12.8984375 26.59765625 12.8984375 26.59765625 9.4609375 26.22265625 C8.8009375 25.56265625 8.1409375 24.90265625 7.4609375 24.22265625 C4.85813182 24.54307022 4.85813182 24.54307022 2.4609375 25.22265625 C2.1721875 26.33640625 1.8834375 27.45015625 1.5859375 28.59765625 C0.4609375 32.22265625 0.4609375 32.22265625 -1.5390625 34.22265625 C-2.5290625 34.22265625 -3.5190625 34.22265625 -4.5390625 34.22265625 C-5.16663778 24.26861505 -5.16663778 24.26861505 -2.6640625 20.09765625 C0.79923629 17.04180438 2.91722619 17.12387992 7.4609375 17.22265625 C7.4609375 16.23265625 7.4609375 15.24265625 7.4609375 14.22265625 C6.7596875 13.99578125 6.0584375 13.76890625 5.3359375 13.53515625 C1.75961032 11.90248515 -0.72898759 9.96886582 -3.5390625 7.22265625 C-4.5390625 4.53515625 -4.5390625 4.53515625 -4.5390625 2.22265625 C-2.5390625 0.22265625 -2.5390625 0.22265625 0 0 Z " fill="#AD3432" transform="translate(582.5390625,439.77734375)"/>
<path d="M0 0 C0.93473579 2.97415932 1.17006838 4.54648433 0.0625 7.5 C-2.39762336 10.48196771 -4.99909458 12.0301298 -8.35546875 13.88671875 C-8.89816406 14.25410156 -9.44085937 14.62148438 -10 15 C-10 15.66 -10 16.32 -10 17 C-8.9275 17.061875 -7.855 17.12375 -6.75 17.1875 C-3 18 -3 18 -0.5625 19.875 C1.75675904 24.51351809 1.32104098 28.90793342 1 34 C-0.875 33.6875 -0.875 33.6875 -3 33 C-5.29633824 29.55549263 -5.54016485 27.06187717 -6 23 C-9.79547921 23.96776098 -9.79547921 23.96776098 -13 26 C-16.375 26.375 -16.375 26.375 -20 26 C-22.73796506 23.17371349 -22.98942232 21.0806548 -23.5 17.1875 C-23.29481959 12.25384372 -21.14711091 8.7058669 -18 5 C-11.8682603 0.11963575 -7.53926932 -0.12565449 0 0 Z " fill="#C13430" transform="translate(574,440)"/>
<path d="M0 0 C2.60275627 1.11070002 4.64242233 2.39484074 7 4 C7 7.63 7 11.26 7 15 C5.68 15 4.36 15 3 15 C2.83723958 12.98177083 2.67447917 10.96354167 2.51171875 8.9453125 C2.12606964 6.60480784 2.12606964 6.60480784 -1 5 C-5.14776273 4.71337567 -5.14776273 4.71337567 -9 6 C-9.51101433 9.12996276 -9.638772 11.88099607 -9 15 C-6.74306695 17.87406317 -3.928691 19.84436449 -1 22 C0.49159902 23.25621804 1.97136744 24.52665137 3.4375 25.8125 C4.09621094 26.37582031 4.75492188 26.93914063 5.43359375 27.51953125 C8.00873897 29.95339668 8.20303427 31.88449437 8.3125 35.3125 C8.28413514 38.83541599 8.06650675 39.89358919 6.125 43 C2.25515594 46.64220618 -1.08024814 46.35241659 -6.22265625 46.2578125 C-10.36109391 45.87365373 -12.26578155 45.17760522 -15 42 C-15.48698437 38.28072377 -15.34703069 34.72736666 -15 31 C-13.35 31 -11.7 31 -10 31 C-9.92652344 31.95712891 -9.92652344 31.95712891 -9.8515625 32.93359375 C-9.77679687 33.75988281 -9.70203125 34.58617187 -9.625 35.4375 C-9.55539062 36.26121094 -9.48578125 37.08492187 -9.4140625 37.93359375 C-9.27742187 38.61550781 -9.14078125 39.29742188 -9 40 C-6.01405576 41.49297212 -3.29146376 41.11755228 0 41 C0.99 40.505 0.99 40.505 2 40 C2.69038063 34.76431849 2.69038063 34.76431849 0.73583984 30.05957031 C-1.03518658 28.14193744 -2.87662587 26.37586941 -4.8125 24.625 C-5.45509766 24.01011719 -6.09769531 23.39523437 -6.75976562 22.76171875 C-9.41969667 20.24236438 -11.94251686 18.03832209 -15 16 C-15.88168677 11.75560088 -16.14042903 7.03030926 -13.96875 3.1640625 C-9.9400633 -0.70795305 -5.20722778 -1.01802204 0 0 Z " fill="#9B2520" transform="translate(731,659)"/>
<path d="M0 0 C8 0 8 0 10.46679688 1.078125 C12.74078377 3.92857481 12.51791687 6.1386276 12.53125 9.75 C12.5350769 10.40452148 12.53890381 11.05904297 12.54284668 11.73339844 C12.54556491 13.11525005 12.53820951 14.49715318 12.52148438 15.87890625 C12.50006731 17.99335497 12.52128239 20.10440686 12.546875 22.21875 C12.5442317 23.56250749 12.53910666 24.90626287 12.53125 26.25 C12.52673828 27.47203125 12.52222656 28.6940625 12.51757812 29.953125 C12 33 12 33 10.46679688 34.921875 C8 36 8 36 0 36 C0 24.12 0 12.24 0 0 Z " fill="#070101" transform="translate(424,664)"/>
<path d="M0 0 C3.51914575 2.74178221 4.60833329 6.63740397 6.0625 10.6875 C6.31837891 11.37005859 6.57425781 12.05261719 6.83789062 12.75585938 C9.94106218 21.20382513 11.33875824 28.59286745 11.25 37.625 C11.24540771 38.58688232 11.24081543 39.54876465 11.23608398 40.53979492 C10.97723992 61.02276008 10.97723992 61.02276008 8 64 C7.6068352 65.67884238 7.25914548 67.36850045 6.9375 69.0625 C6.76089844 69.98160156 6.58429687 70.90070313 6.40234375 71.84765625 C6.26957031 72.55792969 6.13679687 73.26820313 6 74 C4 73 4 73 3 70 C2.9233456 68.56004936 2.90266293 67.11671035 2.91821289 65.67480469 C2.9247438 64.80249207 2.93127472 63.93017944 2.93800354 63.03143311 C2.94943893 62.08777893 2.96087433 61.14412476 2.97265625 60.171875 C2.98532325 58.15364768 2.99768262 56.1354184 3.00976562 54.1171875 C3.03436866 50.95143474 3.06211758 47.78578526 3.09594727 44.62011719 C3.34016435 26.71436972 3.34016435 26.71436972 1 9 C0.67 8.67 0.34 8.34 0 8 C-0.14115161 5.32941149 -0.04247107 2.67567762 0 0 Z " fill="#BF7375" transform="translate(684,227)"/>
<path d="M0 0 C3.24312081 1.21777264 3.78313181 2.02472954 6 5 C6.48092631 8.72195142 6.3526754 12.2707842 6 16 C4.35 16 2.7 16 1 16 C0.95101562 15.28972656 0.90203125 14.57945312 0.8515625 13.84765625 C0.77679687 12.92855469 0.70203125 12.00945313 0.625 11.0625 C0.55539062 10.14597656 0.48578125 9.22945312 0.4140625 8.28515625 C0.27742187 7.53105469 0.14078125 6.77695312 0 6 C-3.04300316 4.47849842 -5.654085 4.76100607 -9 5 C-11.46466096 8.69699144 -11.25779399 10.59420931 -11.265625 15.00390625 C-11.26753845 15.68299545 -11.2694519 16.36208466 -11.27142334 17.06175232 C-11.27278247 18.49486665 -11.26910496 19.92799341 -11.26074219 21.36108398 C-11.25002167 23.55805985 -11.26065453 25.75422114 -11.2734375 27.95117188 C-11.27211618 29.34375181 -11.26955436 30.73633123 -11.265625 32.12890625 C-11.26336914 33.39806885 -11.26111328 34.66723145 -11.25878906 35.97485352 C-11.31763907 39.11186997 -11.31763907 39.11186997 -9 41 C-4.34805286 41.34216235 -4.34805286 41.34216235 0 40 C0.40729228 37.67843403 0.74438677 35.3431213 1 33 C2.65 33 4.3 33 6 33 C6.32150943 37.09924523 6.41384837 39.34355086 4.1875 42.875 C0.58811157 46.37154876 -2.99771928 46.33185896 -7.7734375 46.29296875 C-11.06805697 45.85946619 -12.76517216 44.37450458 -15 42 C-17.39365858 37.21268285 -16.35429525 30.00840085 -16.4050293 24.68798828 C-16.42663367 22.98270446 -16.46076605 21.27753225 -16.50756836 19.57275391 C-16.57447656 17.11310384 -16.60200688 14.65574333 -16.62109375 12.1953125 C-16.64892441 11.4347757 -16.67675507 10.67423889 -16.70542908 9.89065552 C-16.69702148 7.72705078 -16.69702148 7.72705078 -16 4 C-10.87309203 -0.41120188 -6.52328338 -1.16110222 0 0 Z " fill="#982420" transform="translate(790,659)"/>
<path d="M0 0 C6.6 0 13.2 0 20 0 C20 1.32 20 2.64 20 4 C15.05 4 10.1 4 5 4 C5 9.28 5 14.56 5 20 C8.96 20 12.92 20 17 20 C17 21.32 17 22.64 17 24 C13.04 24 9.08 24 5 24 C5 29.28 5 34.56 5 40 C9.95 40 14.9 40 20 40 C20 41.32 20 42.64 20 44 C13.4 44 6.8 44 0 44 C0 29.48 0 14.96 0 0 Z " fill="#A02622" transform="translate(887,660)"/>
<path d="M0 0 C6.6 0 13.2 0 20 0 C20 1.32 20 2.64 20 4 C15.05 4 10.1 4 5 4 C5 9.28 5 14.56 5 20 C8.96 20 12.92 20 17 20 C17 21.32 17 22.64 17 24 C13.04 24 9.08 24 5 24 C5 29.28 5 34.56 5 40 C9.95 40 14.9 40 20 40 C20 41.32 20 42.64 20 44 C13.4 44 6.8 44 0 44 C0 29.48 0 14.96 0 0 Z " fill="#A02621" transform="translate(625,660)"/>
<path d="M0 0 C6.27 0 12.54 0 19 0 C19 1.32 19 2.64 19 4 C14.05 4 9.1 4 4 4 C4 9.28 4 14.56 4 20 C7.96 20 11.92 20 16 20 C16 21.32 16 22.64 16 24 C12.04 24 8.08 24 4 24 C4 29.28 4 34.56 4 40 C9.28 40 14.56 40 20 40 C20 41.32 20 42.64 20 44 C13.4 44 6.8 44 0 44 C0 29.48 0 14.96 0 0 Z " fill="#A72823" transform="translate(941,660)"/>
<path d="M0 0 C0.33 0 0.66 0 1 0 C0.50756907 4.92430934 -0.12179905 9.74222656 -1.02905273 14.60742188 C-2.04298343 20.63553195 -2.24433124 26.430846 -2.16015625 32.53125 C-2.15495468 33.57019409 -2.14975311 34.60913818 -2.14439392 35.67956543 C-2.12678465 38.95319547 -2.09561211 42.22649317 -2.0625 45.5 C-2.03482258 48.80203655 -2.01015261 52.1040288 -1.99131775 55.40612793 C-1.9791156 57.44954443 -1.96156639 59.49293781 -1.93800354 61.53625488 C-1.93147263 62.45821655 -1.92494171 63.38017822 -1.91821289 64.33007812 C-1.90583336 65.54153503 -1.90583336 65.54153503 -1.89320374 66.77746582 C-1.99910336 68.98134003 -2.38743569 70.88570596 -3 73 C-3.66 73 -4.32 73 -5 73 C-5.12117188 71.92621094 -5.24234375 70.85242188 -5.3671875 69.74609375 C-5.53615615 68.30986025 -5.70544404 66.87366428 -5.875 65.4375 C-5.99294922 64.38079102 -5.99294922 64.38079102 -6.11328125 63.30273438 C-6.52202527 59.89129389 -7.04633793 56.84884601 -8.05859375 53.546875 C-9.2116544 49.20256349 -9.2621288 45.28168626 -9.1875 40.8125 C-9.1767041 39.97098389 -9.1659082 39.12946777 -9.15478516 38.26245117 C-9.12752156 36.59151358 -9.09386583 34.9206657 -9.05322266 33.25 C-9.00912545 31.38578044 -8.99136074 29.52095923 -8.98046875 27.65625 C-8.62943954 18.19146239 -5.26266371 7.89399556 0 0 Z " fill="#CE5657" transform="translate(468,228)"/>
<path d="M0 0 C6.27 0 12.54 0 19 0 C19 1.32 19 2.64 19 4 C14.05 4 9.1 4 4 4 C4 9.28 4 14.56 4 20 C7.96 20 11.92 20 16 20 C16 21.32 16 22.64 16 24 C12.04 24 8.08 24 4 24 C4 29.28 4 34.56 4 40 C8.95 40 13.9 40 19 40 C19 41.32 19 42.64 19 44 C12.73 44 6.46 44 0 44 C0 29.48 0 14.96 0 0 Z " fill="#A82823" transform="translate(193,660)"/>
<path d="M0 0 C1.65 0 3.3 0 5 0 C5.32613281 1.02480469 5.65226563 2.04960938 5.98828125 3.10546875 C6.42936247 4.46625123 6.87078693 5.82692249 7.3125 7.1875 C7.52583984 7.86103516 7.73917969 8.53457031 7.95898438 9.22851562 C9.24180134 13.15355262 10.70098133 16.52787503 13 20 C13.32613281 19.14277344 13.65226563 18.28554688 13.98828125 17.40234375 C16.22380122 11.55306289 18.46895906 5.72814527 21 0 C22.65 0 24.3 0 26 0 C24.17283702 7.10029125 21.49873348 13.52251545 18.3046875 20.1171875 C16.62785881 23.82227605 15.89817677 27.06295228 15.68359375 31.109375 C15.64169922 31.86347656 15.59980469 32.61757813 15.55664062 33.39453125 C15.49766602 34.56048828 15.49766602 34.56048828 15.4375 35.75 C15.39431641 36.54277344 15.35113281 37.33554687 15.30664062 38.15234375 C15.20097009 40.10137815 15.10002034 42.05066748 15 44 C13.35 44 11.7 44 10 44 C9.96559814 43.43192627 9.93119629 42.86385254 9.89575195 42.27856445 C9.13737758 30.64663011 8.05786249 20.62469228 3 10 C0 3.24409449 0 3.24409449 0 0 Z " fill="#982420" transform="translate(242,660)"/>
<path d="M0 0 C7.27674946 -0.39331156 13.27979883 0.56656795 20.1875 2.8125 C21.46270508 3.20405273 21.46270508 3.20405273 22.76367188 3.60351562 C32.91102741 6.77701292 40.01851845 9.90257637 45.4375 19.5625 C46.17313779 22.75026376 46.127765 25.74199254 46 29 C43.93933806 27.14540425 42.66178116 25.45185223 41.1875 23.0625 C36.8403995 16.97655929 30.73894141 14.99530225 23.9375 12.6875 C2.5690082 5.1380164 2.5690082 5.1380164 0 0 Z " fill="#B94444" transform="translate(518,312)"/>
<path d="M0 0 C2.51756593 2.51756593 2.54955559 4.68199196 3.2265625 8.078125 C4.40439053 12.52769755 6.18913583 16.70709603 7.96777344 20.94604492 C10 25.81748542 10 25.81748542 10 28 C10.66 28 11.32 28 12 28 C13.55078125 29.79296875 13.55078125 29.79296875 15.3125 32.1875 C19.36001683 37.51714949 22.57597542 41.68021335 29 44 C29.33 44.66 29.66 45.32 30 46 C23.85184071 46.5232476 19.20405158 45.39696856 14 42 C6.38003399 34.96712607 -0.30056004 26.5600916 -1.17504883 15.85766602 C-1.23103725 13.60998995 -1.22432073 11.3730024 -1.1875 9.125 C-1.18685547 8.35414063 -1.18621094 7.58328125 -1.18554688 6.7890625 C-1.1407983 1.1407983 -1.1407983 1.1407983 0 0 Z " fill="#AD484A" transform="translate(693,356)"/>
<path d="M0 0 C0.33 0 0.66 0 1 0 C1.54191285 13.74852975 0.51294456 23.62224229 -9 34 C-9.5259375 34.5775 -10.051875 35.155 -10.59375 35.75 C-12 37 -12 37 -14 37 C-14 37.99 -14 38.98 -14 40 C-18.92984325 42.03993514 -22.57960425 43.40652968 -28 43 C-26.86370543 39.5911163 -26.24087849 39.2433718 -23.375 37.3125 C-12.11676518 29.11007177 -6.44810383 17.88971633 -2.859375 4.65234375 C-2 2 -2 2 0 0 Z " fill="#BB3C3B" transform="translate(460,359)"/>
<path d="M0 0 C0.66 0.33 1.32 0.66 2 1 C2.74609375 3.51953125 2.74609375 3.51953125 3.4375 6.8125 C4.62761961 12.33805533 5.96982238 17.7912938 7.44921875 23.24609375 C8 26 8 26 8 32 C3.05 32 -1.9 32 -7 32 C-6.42284882 27.09421497 -5.76807479 22.20152217 -5.0625 17.3125 C-4.90910156 16.23613281 -4.75570312 15.15976562 -4.59765625 14.05078125 C-4.02721461 11.13891903 -3.17776108 8.71297494 -2 6 C-1.32204472 4.00379834 -0.65266469 2.00461299 0 0 Z " fill="#110505" transform="translate(722,566)"/>
<path d="M0 0 C-2.13450429 2.33376906 -4.10816304 3.72775228 -6.95703125 5.0859375 C-7.73344971 5.4567041 -8.50986816 5.8274707 -9.30981445 6.20947266 C-10.13570068 6.59409668 -10.96158691 6.9787207 -11.8125 7.375 C-12.65965576 7.77638184 -13.50681152 8.17776367 -14.37963867 8.59130859 C-19.45396936 10.95406625 -24.48465528 12.91735746 -29.8125 14.625 C-37.34230058 17.17881348 -40.17056052 20.64602762 -43.875 27.4375 C-44.24625 28.283125 -44.6175 29.12875 -45 30 C-45.33 30 -45.66 30 -46 30 C-46.62946009 22.60384396 -44.32435898 17.07635747 -39.875 11.1875 C-33.08938868 6.02453486 -24.4369408 4.13382574 -16.25 2.25 C-15.34378906 2.02957031 -14.43757812 1.80914062 -13.50390625 1.58203125 C-8.91593995 0.50369173 -4.74872582 -0.28303664 0 0 Z " fill="#BC6163" transform="translate(635,312)"/>
<path d="M0 0 C6.56619802 6.56619802 7 24.03249143 7 33 C2.38 33 -2.24 33 -7 33 C-6.40725668 25.62438712 -5.18979636 18.63603249 -3.5 11.4375 C-3.27441406 10.44169922 -3.04882812 9.44589844 -2.81640625 8.41992188 C-1.13584877 1.13584877 -1.13584877 1.13584877 0 0 Z " fill="#0A0303" transform="translate(489,565)"/>
<path d="M0 0 C0.66 0 1.32 0 2 0 C1.74253792 2.83511188 1.46943783 5.66730179 1.1875 8.5 C1.11724609 9.29148437 1.04699219 10.08296875 0.97460938 10.8984375 C-0.06680767 21.06266786 -3.85802581 27.92881597 -10 36 C-10.52078125 36.69996094 -11.0415625 37.39992188 -11.578125 38.12109375 C-14.65730617 42.01868886 -16.96271671 43.92058215 -22 45 C-20.43517594 40.55928307 -18.06066726 36.76968935 -15.5625 32.8125 C-12.48550509 27.82429441 -10.20591386 23.35347919 -8.8125 17.625 C-7.70125483 14.0348233 -6.06953931 10.78474336 -4.375 7.4375 C-4.06095215 6.81673584 -3.7469043 6.19597168 -3.42333984 5.55639648 C-1.15946228 1.15946228 -1.15946228 1.15946228 0 0 Z " fill="#AF3C3C" transform="translate(444,325)"/>
<path d="M0 0 C3.6812098 3.36726047 5.83292925 6.16164972 7.625 10.8125 C8.00914062 11.78832031 8.39328125 12.76414062 8.7890625 13.76953125 C9.42520023 15.46658255 10.05752024 17.16539757 10.65283203 18.87719727 C12.47914605 24.02104163 14.8707836 28.6081207 17.625 33.3125 C18.4320195 34.70307632 19.23680311 36.09495327 20.0390625 37.48828125 C20.39178223 38.09196533 20.74450195 38.69564941 21.10791016 39.31762695 C22 41 22 41 23 44 C16.9608912 42.91296042 12.74696793 38.45692293 9.2890625 33.59375 C7.77039602 31.09604472 6.35326611 28.59128154 5 26 C4.6587207 25.41782715 4.31744141 24.8356543 3.96582031 24.23583984 C1.02680048 18.95902312 0.35729189 14.48883807 0.25 8.5 C0.22035156 7.67757813 0.19070313 6.85515625 0.16015625 6.0078125 C0.09031563 4.00571467 0.04279612 2.00285844 0 0 Z " fill="#B25355" transform="translate(708,325)"/>
<path d="M0 0 C7.26 0 14.52 0 22 0 C22 1.32 22 2.64 22 4 C19.03 4 16.06 4 13 4 C13 17.2 13 30.4 13 44 C11.68 44 10.36 44 9 44 C9 30.8 9 17.6 9 4 C6.03 4 3.06 4 0 4 C0 2.68 0 1.36 0 0 Z " fill="#A72823" transform="translate(511,660)"/>
<path d="M0 0 C2 1 2 1 2.66674805 2.69555664 C2.96125854 3.79178345 2.96125854 3.79178345 3.26171875 4.91015625 C3.49036621 5.72814697 3.71901367 6.5461377 3.95458984 7.38891602 C4.31738037 8.71234009 4.31738037 8.71234009 4.6875 10.0625 C6.85710401 17.69179379 9.43846537 24.88383577 12.81518555 32.06079102 C14.15043404 34.91718959 15 36.80032566 15 40 C8.07461573 36.99292525 3.87705801 30.43722207 0.62890625 23.859375 C0 22 0 22 0 18 C-0.66 18 -1.32 18 -2 18 C-2.054138 15.75026553 -2.09285491 13.50015617 -2.125 11.25 C-2.14820313 9.99703125 -2.17140625 8.7440625 -2.1953125 7.453125 C-2.01537302 4.27179508 -1.68998582 2.63478104 0 0 Z " fill="#A63838" transform="translate(665,408)"/>
<path d="M0 0 C0.66 0 1.32 0 2 0 C2.74443359 1.54107422 2.74443359 1.54107422 3.50390625 3.11328125 C8.32004194 12.98074816 13.15545918 22.74016763 20.4375 31.0625 C23 34 23 34 23 36 C17.71737726 36.11239623 15.27350545 34.77245603 11.4375 31.125 C4.44979193 23.65949993 -0.1851046 15.54878614 -0.0625 5.25 C-0.05347656 4.26515625 -0.04445313 3.2803125 -0.03515625 2.265625 C-0.02355469 1.51796875 -0.01195312 0.7703125 0 0 Z " fill="#A74041" transform="translate(688,380)"/>
<path d="M0 0 C8 0 8 0 10.46875 1.0625 C12.77335225 3.97852734 12.53053475 6.33583034 12.5 10 C12.5103125 11.2375 12.520625 12.475 12.53125 13.75 C12 17 12 17 10.46875 18.9375 C8 20 8 20 0 20 C0 13.4 0 6.8 0 0 Z " fill="#0B0202" transform="translate(836,664)"/>
<path d="M0 0 C0.66 0.33 1.32 0.66 2 1 C4.28352636 10.13410543 2.77149746 18.17410037 0 27 C-0.66 27 -1.32 27 -2 27 C-2.37125 28.10408203 -2.37125 28.10408203 -2.75 29.23046875 C-4.11894585 32.26353941 -5.62873585 33.99790209 -8 36.3125 C-8.70125 37.00988281 -9.4025 37.70726562 -10.125 38.42578125 C-12 40 -12 40 -14 40 C-12.58576117 35.59642221 -10.94726549 31.33886944 -9.1875 27.0625 C-5.61946426 18.27752174 -2.13504107 9.25184465 0 0 Z " fill="#B73432" transform="translate(487,408)"/>
<path d="M0 0 C5.48821025 5.17071048 7.15161743 10.35654766 7.5 17.75 C7.29228229 25.55425119 4.77110651 33.58662768 -0.8125 39.25 C-1.534375 39.8275 -2.25625 40.405 -3 41 C-2.85764543 39.27054347 -2.71095618 37.54144346 -2.5625 35.8125 C-2.48128906 34.84957031 -2.40007813 33.88664062 -2.31640625 32.89453125 C-2 30 -2 30 -1.5 27.69140625 C-0.9591489 24.78010619 -0.78980316 22.00165959 -0.68359375 19.04296875 C-0.62075195 17.37524414 -0.62075195 17.37524414 -0.55664062 15.67382812 C-0.51732422 14.52333984 -0.47800781 13.37285156 -0.4375 12.1875 C-0.39431641 11.01767578 -0.35113281 9.84785156 -0.30664062 8.64257812 C-0.20081721 5.76182969 -0.09873175 2.88099877 0 0 Z " fill="#A22E2C" transform="translate(642,444)"/>
<path d="M0 0 C0.66 0 1.32 0 2 0 C2.38064617 11.99035432 0.43056424 19.95630381 -8 29 C-11.13528418 31.44987494 -14.26346803 33.59299329 -18 35 C-18.99 34.67 -19.98 34.34 -21 34 C-20.38253906 33.2471875 -19.76507813 32.494375 -19.12890625 31.71875 C-11.403741 22.10220884 -4.29972437 11.64508682 0 0 Z " fill="#B73836" transform="translate(463,381)"/>
<path d="M0 0 C0.66 0 1.32 0 2 0 C2.15855469 0.57105469 2.31710937 1.14210938 2.48046875 1.73046875 C5.60305848 12.58189936 9.21875088 22.4976692 15.64453125 31.85546875 C17 34 17 34 17 36 C11.65006396 35.38857874 8.78075056 33.19949141 5.421875 29.05078125 C-0.65323164 20.60166449 -1.75521475 12.27443319 -1 2 C-0.67 1.34 -0.34 0.68 0 0 Z " fill="#A5393A" transform="translate(676,403)"/>
<path d="M0 0 C0.66 0.33 1.32 0.66 2 1 C2.56112386 10.94436182 1.90379875 19.20249434 -4.3125 27.3125 C-7.40490776 30.40490776 -10.26430024 32.71707237 -14 35 C-14.99 34.67 -15.98 34.34 -17 34 C-16.64808594 33.45214844 -16.29617188 32.90429688 -15.93359375 32.33984375 C-12.68522843 27.12380023 -9.8468879 21.81161668 -7.25 16.25 C-6.80998657 15.31208618 -6.80998657 15.31208618 -6.36108398 14.35522461 C-4.65166275 10.6357649 -3.22206068 6.90580177 -2 3 C-1.34 3 -0.68 3 0 3 C0 2.01 0 1.02 0 0 Z " fill="#B73533" transform="translate(476,405)"/>
<path d="M0 0 C0.33 0 0.66 0 1 0 C1.04898437 1.29550781 1.09796875 2.59101563 1.1484375 3.92578125 C1.64403593 16.01815405 2.58521698 27.98121222 4 40 C-2.32583683 33.92593777 -5.07988656 29.06947889 -5.52416992 20.15942383 C-5.66495316 12.45759417 -4.35835884 6.47527599 0 0 Z " fill="#BD322E" transform="translate(510,444)"/>
<path d="M0 0 C7.31755119 1.40123321 13.19148838 5.14424676 17.61328125 11.21484375 C21.50719081 17.93442219 23.3190894 24.18230971 23 32 C19.28968594 28.61605616 16.71409356 24.80305918 14 20.625 C13.57460938 19.97789062 13.14921875 19.33078125 12.7109375 18.6640625 C10.7502515 15.68093288 8.80014295 12.69146156 6.859375 9.6953125 C5.01783084 6.85235574 5.01783084 6.85235574 2.25 4.25 C1.5075 3.5075 0.765 2.765 0 2 C0 1.34 0 0.68 0 0 Z " fill="#BF5354" transform="translate(530,231)"/>
<path d="M0 0 C0.66 0 1.32 0 2 0 C1.59267119 8.79830226 -0.44864575 14.92444243 -7 21 C-10.11846985 23.72866112 -10.61743753 24 -15 24 C-15 24.66 -15 25.32 -15 26 C-17.97 26 -20.94 26 -24 26 C-22.81189395 22.43568186 -22.05967325 22.18151967 -18.9375 20.3125 C-11.30132105 15.3914069 -5.91400743 9.43880558 -1.2265625 1.6875 C-0.82179688 1.130625 -0.41703125 0.57375 0 0 Z " fill="#BC3836" transform="translate(471,398)"/>
<path d="M0 0 C0.33 0 0.66 0 1 0 C0.59930579 5.81006609 -0.07244494 9.43554411 -4 14 C-10.13603422 17.95433316 -17.80140849 18.84358494 -25 18 C-27.48868167 17.18929309 -29.64793333 16.17603333 -32 15 C-32 14.67 -32 14.34 -32 14 C-31.30438965 13.84442627 -30.6087793 13.68885254 -29.89208984 13.52856445 C-26.71541524 12.8075551 -23.54546531 12.06032025 -20.375 11.3125 C-19.28058594 11.06822266 -18.18617188 10.82394531 -17.05859375 10.57226562 C-9.23376595 8.69904927 -4.57871623 6.86807434 0 0 Z " fill="#A32824" transform="translate(611,484)"/>
<path d="M0 0 C8 0 8 0 10.46875 1.15625 C12.55081932 3.66323143 12.53473027 5.27008481 12.5 8.5 C12.5103125 9.4590625 12.520625 10.418125 12.53125 11.40625 C12 14 12 14 10.46875 15.84375 C8 17 8 17 0 17 C0 11.39 0 5.78 0 0 Z " fill="#070101" transform="translate(140,683)"/>
<path d="M0 0 C-1.39815569 3.04866143 -3.06902626 5.4689452 -5.1875 8.0625 C-8.56914037 12.32997548 -11.47747995 16.78741722 -14.359375 21.40234375 C-16.44896453 24.71086051 -18.64105885 27.87787201 -21 31 C-21.33 31 -21.66 31 -22 31 C-22.58029468 21.86035881 -20.51598266 15.74100474 -14.625 8.6875 C-10.7366796 4.49879433 -6.07460311 0 0 0 Z " fill="#C77E80" transform="translate(623,231)"/>
<path d="M0 0 C0.78375 0.75796875 1.5675 1.5159375 2.375 2.296875 C6.45418385 5.6914071 10.95251145 6.86936343 16 8.25 C16.8765625 8.50523437 17.753125 8.76046875 18.65625 9.0234375 C23.08005818 10.28928623 27.43292362 11.36902234 32 12 C29.28966692 15.11688304 27.0728592 15.78655707 23.02734375 16.203125 C15.78166456 16.36564491 8.08781138 15.57317615 2.375 10.8125 C0.56778296 7.11591969 0.27793888 4.09959842 0 0 Z " fill="#B62D27" transform="translate(542,486)"/>
<path d="M0 0 C0.33 0 0.66 0 1 0 C1.01458252 0.92337158 1.02916504 1.84674316 1.04418945 2.7980957 C1.10526308 6.22577204 1.1794161 9.65264662 1.26245117 13.07983398 C1.29569423 14.56279854 1.32372823 16.04588944 1.34643555 17.52905273 C1.37999468 19.66184293 1.43230638 21.79347612 1.48828125 23.92578125 C1.51446533 25.20880127 1.54064941 26.49182129 1.56762695 27.8137207 C1.75096372 30.94145996 1.75096372 30.94145996 3.30932617 32.92651367 C6.10871459 34.70397372 8.78687817 34.23368159 12 34 C12.99 33.505 12.99 33.505 14 33 C14.40729228 30.67843403 14.74438677 28.3431213 15 26 C16.65 26 18.3 26 20 26 C20.32150943 30.09924523 20.41384837 32.34355086 18.1875 35.875 C15.1930137 38.78392954 12.65590604 39.18180509 8.625 39.3125 C7.49964844 39.36857422 7.49964844 39.36857422 6.3515625 39.42578125 C2.91333408 38.80324487 1.42672024 37.50271046 -1 35 C-1.46035307 32.19184625 -1.6114602 30.00242662 -1.5234375 27.20703125 C-1.51873444 26.46039719 -1.51403137 25.71376312 -1.50918579 24.94450378 C-1.48787711 22.56622127 -1.43126234 20.19018497 -1.375 17.8125 C-1.35849037 16.2011928 -1.34414294 14.58986189 -1.33203125 12.97851562 C-1.19576994 1.19576994 -1.19576994 1.19576994 0 0 Z " fill="#AA2924" transform="translate(776,666)"/>
<path d="M0 0 C3.26428409 3.06026634 6.01730444 6.26546117 8.75 9.8125 C12.69807732 14.83391393 17.14002339 18.88616088 22 23 C22.66 23.66 23.32 24.32 24 25 C17.73656807 25.3914645 12.20015236 24.72445404 7.265625 20.5234375 C2.6387973 15.50722331 -0.14583782 9.88814697 -0.1875 3 C-0.125625 2.01 -0.06375 1.02 0 0 Z " fill="#AC3F3F" transform="translate(681,398)"/>
<path d="M0 0 C0.33 0.66 0.66 1.32 1 2 C0.05957031 4.15136719 0.05957031 4.15136719 -1.421875 6.796875 C-1.95296875 7.7559375 -2.4840625 8.715 -3.03125 9.703125 C-3.5984375 10.70859375 -4.165625 11.7140625 -4.75 12.75 C-5.84980707 14.72348558 -6.94878873 16.69743142 -8.046875 18.671875 C-8.56314453 19.59677734 -9.07941406 20.52167969 -9.61132812 21.47460938 C-11.1553483 24.28251104 -12.60657245 27.11501619 -14 30 C-14.66 29.67 -15.32 29.34 -16 29 C-16.6238711 19.57261442 -15.09738899 14.35308723 -9.6875 6.75 C-6.62586084 3.61715992 -3.88152748 1.97881793 0 0 Z " fill="#C37A7D" transform="translate(602,235)"/>
<path d="M0 0 C5.80575935 1.02378346 9.93690303 5.27785816 13.40625 9.85546875 C16.4970149 15.2091151 16.87869338 20.93088525 16 27 C15.34 27.66 14.68 28.32 14 29 C12.03836215 25.10582207 10.08127199 21.20937591 8.125 17.3125 C7.56941406 16.20970703 7.01382813 15.10691406 6.44140625 13.97070312 C5.90644531 12.90400391 5.37148438 11.83730469 4.8203125 10.73828125 C4.32805176 9.75899658 3.83579102 8.77971191 3.32861328 7.77075195 C2.10267956 5.21413273 1.01762563 2.64540438 0 0 Z " fill="#C55556" transform="translate(551,236)"/>
<path d="M0 0 C8 0 8 0 10 1.4375 C11.47132158 5.20776154 11.74902051 9.0125673 11 13 C9.9765625 14.77734375 9.9765625 14.77734375 8 16 C5.36 16 2.72 16 0 16 C0 10.72 0 5.44 0 0 Z " fill="#070101" transform="translate(140,664)"/>
<path d="M0 0 C4.71218068 2.08983706 7.67230023 5.34460046 10 10 C10.59378882 15.70950788 10.20395799 20.07083387 7 25 C6.34 25.33 5.68 25.66 5 26 C3.23299635 17.35207625 1.61488086 8.67729316 0 0 Z " fill="#A73231" transform="translate(650,441)"/>
<path d="M0 0 C-0.01160156 0.89203125 -0.02320313 1.7840625 -0.03515625 2.703125 C-0.04417969 3.87359375 -0.05320312 5.0440625 -0.0625 6.25 C-0.07410156 7.41015625 -0.08570313 8.5703125 -0.09765625 9.765625 C-0.01782092 12.40977128 0.21356222 14.49826091 1 17 C-1.1875 17 -1.1875 17 -4 16 C-5.43578211 14.10918541 -6.5637675 12.13704044 -7.73046875 10.0703125 C-8.93693341 8.10284706 -10.1400694 6.69849808 -11.8125 5.125 C-12.534375 4.42375 -13.25625 3.7225 -14 3 C-14 2.34 -14 1.68 -14 1 C-9.32798795 -0.20568053 -4.78503708 -0.09382426 0 0 Z " fill="#150707" transform="translate(523,351)"/>
<path d="M0 0 C-0.12117188 0.62003906 -0.24234375 1.24007813 -0.3671875 1.87890625 C-1.88256735 9.88710589 -2.97461734 17.91693032 -4 26 C-7 25 -7 25 -8.1640625 23.3046875 C-9.83614932 18.69472852 -9.53543892 13.81895028 -9 9 C-7.1875 5.4375 -7.1875 5.4375 -5 3 C-4.46375 2.38125 -3.9275 1.7625 -3.375 1.125 C-2 0 -2 0 0 0 Z " fill="#BD332F" transform="translate(503,441)"/>
<path d="M0 0 C4.29 0 8.58 0 13 0 C11.96373033 3.108809 11.24205035 3.80180394 9 6 C8.11128757 7.33175008 7.25745145 8.68734631 6.4375 10.0625 C5.05690619 12.37209151 3.91494508 14.08505492 2 16 C1.01 16 0.02 16 -1 16 C-0.67 10.72 -0.34 5.44 0 0 Z " fill="#100707" transform="translate(631,352)"/>
<path d="M0 0 C0.99 0 1.98 0 3 0 C7.07877462 7.0547046 7.07877462 7.0547046 6.75 11 C6.5025 11.66 6.255 12.32 6 13 C5.67 12.01 5.34 11.02 5 10 C4.01 10 3.02 10 2 10 C2 20.56 2 31.12 2 42 C1.34 42 0.68 42 0 42 C0 28.14 0 14.28 0 0 Z " fill="#AE2A25" transform="translate(996,661)"/>
<path d="M0 0 C0.33 0 0.66 0 1 0 C3.13225222 7.7957838 3.26748707 15.13406456 3.1875 23.1875 C3.18685547 24.43208984 3.18621094 25.67667969 3.18554688 26.95898438 C3.15913414 32.43815907 3.01606585 37.60243524 2 43 C1.34 43 0.68 43 0 43 C-0.07347656 41.45505859 -0.07347656 41.45505859 -0.1484375 39.87890625 C-0.67927612 29.52081037 -1.67410493 19.28534137 -3 9 C-0.72525723 12.41211416 -0.43370356 14.6568529 0.125 18.6875 C0.29257812 19.86699219 0.46015625 21.04648437 0.6328125 22.26171875 C0.75398437 23.16535156 0.87515625 24.06898438 1 25 C1.02721176 23.10424749 1.04649136 21.20838021 1.0625 19.3125 C1.07410156 18.25675781 1.08570313 17.20101562 1.09765625 16.11328125 C1.00827851 13.26391887 0.58490263 10.77828747 0 8 C-0.11678799 5.32321927 -0.0454506 2.68158543 0 0 Z " fill="#744749" transform="translate(704,235)"/>
<path d="M0 0 C2.32601226 2.32601226 2.83016094 4.02502294 3.875 7.125 C5.13878333 10.74056057 6.48969916 14.16050015 8.25 17.5625 C10 21 10 21 10 23 C8.68 23.33 7.36 23.66 6 24 C2.7836978 17.78920954 0.21386898 11.64160693 -2 5 C-1.34 5 -0.68 5 0 5 C0 3.35 0 1.7 0 0 Z " fill="#91221E" transform="translate(366,668)"/>
<path d="M0 0 C0.33 0 0.66 0 1 0 C1 7.59 1 15.18 1 23 C1.33 21.35 1.66 19.7 2 18 C2.33 18 2.66 18 3 18 C3.02696009 20.7708983 3.04681952 23.5415345 3.0625 26.3125 C3.07087891 27.09818359 3.07925781 27.88386719 3.08789062 28.69335938 C3.09111328 29.45068359 3.09433594 30.20800781 3.09765625 30.98828125 C3.10289307 31.68477783 3.10812988 32.38127441 3.11352539 33.09887695 C3 35 3 35 2 38 C1.34 38 0.68 38 0 38 C-0.87289406 32.0005853 -1.15728852 26.18371024 -1.125 20.125 C-1.12306641 19.2474707 -1.12113281 18.36994141 -1.11914062 17.46582031 C-1.07983506 11.58527047 -0.7779616 5.834712 0 0 Z " fill="#682C2C" transform="translate(447,240)"/>
<path d="M0 0 C0 0.99 0 1.98 0 3 C-0.66 3.66 -1.32 4.32 -2 5 C-2 5.99 -2 6.98 -2 8 C-3.32 8.33 -4.64 8.66 -6 9 C-6 9.66 -6 10.32 -6 11 C-19.5773447 15.58952497 -19.5773447 15.58952497 -25.1953125 12.98046875 C-25.79085937 12.65691406 -26.38640625 12.33335937 -27 12 C-26.39414062 11.98582031 -25.78828125 11.97164063 -25.1640625 11.95703125 C-14.76281583 11.36496029 -7.49213975 7.00352194 0 0 Z " fill="#842220" transform="translate(614,471)"/>
<path d="M0 0 C0.33 0 0.66 0 1 0 C1 16.83 1 33.66 1 51 C0.67 51 0.34 51 0 51 C-0.33 37.8 -0.66 24.6 -1 11 C-1.99 12.32 -2.98 13.64 -4 15 C-3.32584613 9.7415998 -1.75734451 4.97361654 0 0 Z " fill="#481819" transform="translate(582,568)"/>
<path d="M0 0 C3.90381822 3.90381822 3.56244183 5.66179036 4 11 C3.67 10.34 3.34 9.68 3 9 C2.34 9 1.68 9 1 9 C1 22.2 1 35.4 1 49 C0.67 49 0.34 49 0 49 C0 32.83 0 16.66 0 0 Z " fill="#290E0E" transform="translate(553,570)"/>
<path d="M0 0 C2.35243131 2.35243131 2.91585023 4.18286453 4 7.3125 C5.25695868 10.91152622 6.55967048 14.46990668 8 18 C7.34 18 6.68 18 6 18 C5.67 17.01 5.34 16.02 5 15 C4.34 14.67 3.68 14.34 3 14 C3.66 16.31 4.32 18.62 5 21 C3 20 3 20 2.21875 17.890625 C1.9815625 17.01921875 1.744375 16.1478125 1.5 15.25 C0.70921397 12.39911497 -0.0585227 9.87459421 -1.3125 7.1875 C-2.24825203 4.21010718 -1.39168174 2.70604783 0 0 Z " fill="#90221E" transform="translate(1003,669)"/>
<path d="M0 0 C0.66 0.33 1.32 0.66 2 1 C1.67 1.66 1.34 2.32 1 3 C4.72975606 2.8897609 8.45853583 2.75921587 12.1875 2.625 C13.24259766 2.5940625 14.29769531 2.563125 15.38476562 2.53125 C16.91713867 2.47324219 16.91713867 2.47324219 18.48046875 2.4140625 C19.88655396 2.36693115 19.88655396 2.36693115 21.32104492 2.31884766 C24.16995808 1.97977169 26.39520444 1.17742543 29 0 C28.34 1.32 27.68 2.64 27 4 C25.81241089 3.99830811 25.81241089 3.99830811 24.60083008 3.99658203 C21.00385829 4.00870814 17.40900188 4.06637134 13.8125 4.125 C11.94368164 4.12113281 11.94368164 4.12113281 10.03710938 4.1171875 C3.6882528 4.02782739 3.6882528 4.02782739 -1.97900391 6.39355469 C-3.54774712 8.17109775 -3.54774712 8.17109775 -5 11 C-5.33 10.01 -5.66 9.02 -6 8 C-4.22557591 5.00183515 -2.46459429 2.46459429 0 0 Z " fill="#6B2E2F" transform="translate(611,371)"/>
<path d="M0 0 C0.66 0 1.32 0 2 0 C2.33 1.98 2.66 3.96 3 6 C2.67 6 2.34 6 2 6 C1.67 21.51 1.34 37.02 1 53 C0.67 53 0.34 53 0 53 C0 35.51 0 18.02 0 0 Z " fill="#913131" transform="translate(552,566)"/>
<path d="M0 0 C2.08450717 0.2831556 4.16758367 0.57685669 6.25 0.875 C7.99023438 1.11863281 7.99023438 1.11863281 9.765625 1.3671875 C12.58193313 1.91820431 14.55217557 2.55796482 17 4 C14.50565062 5.24717469 13.41004318 4.87219177 10.6875 4.4375 C6.74474436 3.92021046 4.67249416 4.4697941 1 6 C-1.8125 5.125 -1.8125 5.125 -4 4 C-4 6.64 -4 9.28 -4 12 C-4.33 12 -4.66 12 -5 12 C-5.33 8.7 -5.66 5.4 -6 2 C-3.03 2.495 -3.03 2.495 0 3 C0 2.01 0 1.02 0 0 Z " fill="#7C2A2A" transform="translate(539,350)"/>
<path d="M0 0 C0.66 0.33 1.32 0.66 2 1 C-2.56412219 4.48483077 -6.32855427 4.366774 -11.8125 4.1875 C-12.60076172 4.17396484 -13.38902344 4.16042969 -14.20117188 4.14648438 C-16.13441169 4.11133456 -18.06729682 4.05753361 -20 4 C-20.28617188 4.62390625 -20.57234375 5.2478125 -20.8671875 5.890625 C-22.19584023 8.36466802 -23.68676698 9.45784465 -26 11 C-24.63478542 6.53202502 -22.93220193 4.51471926 -19 2 C-16.17765632 1.58261115 -13.69552663 1.35103178 -10.875 1.3125 C-5.35994527 1.20596387 -5.35994527 1.20596387 0 0 Z " fill="#431F1F" transform="translate(671,351)"/>
<path d="M0 0 C3.46683791 3.46683791 3.16132819 6.87774527 3.1875 11.5625 C3.20167969 12.71878906 3.21585938 13.87507813 3.23046875 15.06640625 C3 18 3 18 1 20 C-0.32 20 -1.64 20 -3 20 C-2.68289063 19.51015625 -2.36578125 19.0203125 -2.0390625 18.515625 C-0.58626385 14.998323 -0.53415248 11.50334607 -0.375 7.75 C-0.33632813 7.00492187 -0.29765625 6.25984375 -0.2578125 5.4921875 C-0.16394892 3.6618476 -0.08090282 1.83095857 0 0 Z " fill="#9E4E4F" transform="translate(676,326)"/>
<path d="M0 0 C1.37091797 0.43892578 1.37091797 0.43892578 2.76953125 0.88671875 C7.42021984 2.2843991 11.75397009 3.11874128 16.58203125 3.57421875 C16.58203125 4.23421875 16.58203125 4.89421875 16.58203125 5.57421875 C8.28117394 6.08767384 2.0626715 5.2814387 -5.41796875 1.57421875 C-2.41796875 -0.42578125 -2.41796875 -0.42578125 0 0 Z " fill="#912420" transform="translate(549.41796875,479.42578125)"/>
<path d="M0 0 C1.20220203 3.53094302 0.79532349 6.12898982 0.0625 9.75 C-0.13214844 10.73484375 -0.32679688 11.7196875 -0.52734375 12.734375 C-0.68332031 13.48203125 -0.83929687 14.2296875 -1 15 C0.32 15 1.64 15 3 15 C3.33 12.36 3.66 9.72 4 7 C4.66 7 5.32 7 6 7 C6.33 5.68 6.66 4.36 7 3 C7 5.64 7 8.28 7 11 C6.34 11 5.68 11 5 11 C5 12.65 5 14.3 5 16 C2.69 16 0.38 16 -2 16 C-2.05449838 14.27119018 -2.09301688 12.54187288 -2.125 10.8125 C-2.14820313 9.84957031 -2.17140625 8.88664063 -2.1953125 7.89453125 C-1.9913544 4.87187222 -1.26874632 2.73230015 0 0 Z " fill="#7E2B2B" transform="translate(706,603)"/>
<path d="M0 0 C0.66 0 1.32 0 2 0 C6.09030544 5.14209827 6.09030544 5.14209827 5.75 8.375 C5.5025 8.91125 5.255 9.4475 5 10 C4.236875 9.195625 3.47375 8.39125 2.6875 7.5625 C-0.87398976 4.16666093 -3.3714868 3.87514215 -8.10546875 3.68359375 C-9.57983398 3.62075195 -9.57983398 3.62075195 -11.08398438 3.55664062 C-12.10814453 3.51732422 -13.13230469 3.47800781 -14.1875 3.4375 C-15.22326172 3.39431641 -16.25902344 3.35113281 -17.32617188 3.30664062 C-19.8839819 3.20055634 -22.44188845 3.09849854 -25 3 C-25.33 2.34 -25.66 1.68 -26 1 C-22.06221489 1.1387078 -18.12485777 1.28718492 -14.1875 1.4375 C-13.06794922 1.47681641 -11.94839844 1.51613281 -10.79492188 1.55664062 C-9.18520508 1.61948242 -9.18520508 1.61948242 -7.54296875 1.68359375 C-6.55321045 1.72025146 -5.56345215 1.75690918 -4.54370117 1.79467773 C-2 2 -2 2 1 3 C0.67 2.01 0.34 1.02 0 0 Z " fill="#7B2827" transform="translate(542,372)"/>
<path d="M0 0 C0.66 0 1.32 0 2 0 C2.70226141 1.24176695 3.38629109 2.49385599 4.0625 3.75 C4.44535156 4.44609375 4.82820313 5.1421875 5.22265625 5.859375 C6.1312406 8.36140628 5.88336837 9.5332355 5 12 C3.5393715 9.35261084 3 8.10551666 3 5 C2.34 5 1.68 5 1 5 C1 13.91 1 22.82 1 32 C0.67 32 0.34 32 0 32 C0 21.44 0 10.88 0 0 Z " fill="#490E0E" transform="translate(362,672)"/>
<path d="M0 0 C2.53833449 1.26916725 2.89400901 2.41624809 4.125 4.9375 C4.47820313 5.64777344 4.83140625 6.35804688 5.1953125 7.08984375 C6 9 6 9 6 11 C5.34 11 4.68 11 4 11 C3.67 10.01 3.34 9.02 3 8 C2.34 7.67 1.68 7.34 1 7 C1 15.25 1 23.5 1 32 C0.67 32 0.34 32 0 32 C0 21.44 0 10.88 0 0 Z " fill="#330809" transform="translate(999,672)"/>
<path d="M0 0 C0.66 0.33 1.32 0.66 2 1 C-3.94 6.94 -9.88 12.88 -16 19 C-16 14.06349214 -12.32693536 11.4052871 -9 8 C-6.06043996 5.26044168 -3.05755103 2.60689158 0 0 Z " fill="#291A1A" transform="translate(641,231)"/>
<path d="M0 0 C2.64 0 5.28 0 8 0 C8 0.66 8 1.32 8 2 C9.98 1.67 11.96 1.34 14 1 C13.67 1.99 13.34 2.98 13 4 C12.67 3.67 12.34 3.34 12 3 C7.45829004 4.90884692 7.45829004 4.90884692 3 7 C3 6.34 3 5.68 3 5 C1.35 6.32 -0.3 7.64 -2 9 C-2.66 8.67 -3.32 8.34 -4 8 C1.75 3.125 1.75 3.125 4 2 C2.68 1.34 1.36 0.68 0 0 Z " fill="#893F41" transform="translate(606,351)"/>
<path d="M0 0 C0.33 0 0.66 0 1 0 C1 5.94 1 11.88 1 18 C0.34 16.68 -0.32 15.36 -1 14 C-1.33 15.98 -1.66 17.96 -2 20 C-2.33 20 -2.66 20 -3 20 C-3.41640288 12.7515055 -2.44166784 6.83085645 0 0 Z " fill="#722828" transform="translate(477,324)"/>
<path d="M0 0 C0 0.33 0 0.66 0 1 C-1.7015625 1.4640625 -1.7015625 1.4640625 -3.4375 1.9375 C-6.78775099 2.62924531 -6.78775099 2.62924531 -8 4 C-8.15888092 6.28988781 -8.25138073 8.58443441 -8.31640625 10.87890625 C-8.33718735 11.5655687 -8.35796844 12.25223114 -8.37937927 12.95970154 C-8.44494143 15.16052935 -8.50379015 17.36147975 -8.5625 19.5625 C-8.60567892 21.05144514 -8.649293 22.54037773 -8.69335938 24.02929688 C-8.8006293 27.68606553 -8.90187772 31.34297318 -9 35 C-9.33 35 -9.66 35 -10 35 C-10.07405887 30.33694962 -10.12855763 25.67424016 -10.16479492 21.01074219 C-10.17989814 19.42376749 -10.20038223 17.83683463 -10.22631836 16.25 C-10.26263595 13.97124927 -10.27971023 11.69304942 -10.29296875 9.4140625 C-10.30845261 8.70255035 -10.32393646 7.99103821 -10.33988953 7.25796509 C-10.34057617 5.25634766 -10.34057617 5.25634766 -10 2 C-6.3558226 -0.4294516 -4.28758728 -0.16179575 0 0 Z " fill="#120202" transform="translate(314,663)"/>
<path d="M0 0 C1.171875 1.6953125 1.171875 1.6953125 2 4 C0.953125 6.3671875 0.953125 6.3671875 -0.75 8.875 C-3.1125504 12.52131066 -4.88352415 15.75739178 -6 20 C-6.33 20 -6.66 20 -7 20 C-6.73885847 12.0351832 -4.12541907 6.74953884 0 0 Z " fill="#B67375" transform="translate(624,243)"/>
<path d="M0 0 C0.33 0 0.66 0 1 0 C0.91253716 1.43861294 0.80434652 2.87597508 0.6875 4.3125 C0.62949219 5.11300781 0.57148438 5.91351563 0.51171875 6.73828125 C-0.10090574 9.44598797 -1.05159657 10.08980056 -3 12 C-4.21866975 14.71825785 -4.21866975 14.71825785 -5.1875 17.6875 C-5.53167969 18.68136719 -5.87585938 19.67523438 -6.23046875 20.69921875 C-6.48441406 21.45847656 -6.73835938 22.21773437 -7 23 C-8.47233966 18.45719377 -6.88748577 15.20089547 -5.1875 10.9375 C-4.77661133 9.85758789 -4.77661133 9.85758789 -4.35742188 8.75585938 C-3.13080336 5.58783026 -1.89058179 2.83587268 0 0 Z " fill="#914041" transform="translate(468,228)"/>
<path d="M0 0 C8.58838053 -0.71240023 15.9081731 1.38822878 24 4 C24 4.33 24 4.66 24 5 C17.85845775 4.41509121 11.99320151 3.45933748 6 2 C6 2.66 6 3.32 6 4 C1.125 2.25 1.125 2.25 0 0 Z " fill="#8C3435" transform="translate(518,312)"/>
<path d="M0 0 C4.75106805 4.92074905 7.84549592 11.98289396 8.109375 18.84375 C8.07328125 19.5553125 8.0371875 20.266875 8 21 C5.74574638 17.61861957 4.50978279 14.26310117 3.09765625 10.47265625 C2.0876949 7.94356899 2.0876949 7.94356899 0.3515625 5.82421875 C-1 4 -1 4 -0.6875 1.75 C-0.460625 1.1725 -0.23375 0.595 0 0 Z " fill="#A24646" transform="translate(529,244)"/>
<path d="M0 0 C1.32 0 2.64 0 4 0 C2.68 5.61 1.36 11.22 0 17 C-0.33 17 -0.66 17 -1 17 C-1.10477512 11.21408489 -0.99250545 5.70690634 0 0 Z " fill="#A34748" transform="translate(582,365)"/>
<path d="M0 0 C0.66 0.33 1.32 0.66 2 1 C1.95875 1.99 1.9175 2.98 1.875 4 C1.8576652 8.23835866 2.85808838 11.93193985 4 16 C2.68 16 1.36 16 0 16 C-0.66 13.69 -1.32 11.38 -2 9 C-1.34 9 -0.68 9 0 9 C0 6.03 0 3.06 0 0 Z " fill="#250E0E" transform="translate(680,397)"/>
<path d="M0 0 C1.65 1.65 3.3 3.3 5 5 C4.67 5.66 4.34 6.32 4 7 C3.67 6.67 3.34 6.34 3 6 C3 10.29 3 14.58 3 19 C2.34 18.67 1.68 18.34 1 18 C0.67 12.06 0.34 6.12 0 0 Z " fill="#6F3739" transform="translate(708,325)"/>
<path d="M0 0 C1.31602523 0.61754259 2.62773556 1.24428742 3.9375 1.875 C4.66839844 2.22304688 5.39929688 2.57109375 6.15234375 2.9296875 C8 4 8 4 9 6 C3.34605369 6.34615998 -0.03006806 5.43425238 -5 3 C-3 2 -3 2 0 2 C0 1.34 0 0.68 0 0 Z " fill="#813232" transform="translate(714,396)"/>
<path d="M0 0 C0.66 0.33 1.32 0.66 2 1 C1.67 1.66 1.34 2.32 1 3 C3.97 2.01 6.94 1.02 10 0 C10 0.66 10 1.32 10 2 C5.07015675 4.03993514 1.42039575 5.40652968 -4 5 C-3 2 -3 2 0 0 Z " fill="#722222" transform="translate(436,397)"/>
<path d="M0 0 C0.33 0 0.66 0 1 0 C1.33 9.24 1.66 18.48 2 28 C1.34 28 0.68 28 0 28 C-1.08266248 24.75201257 -1.03436186 22.64103173 -0.87890625 19.23828125 C-0.83056641 18.12001953 -0.78222656 17.00175781 -0.73242188 15.84960938 C-0.67634766 14.68236328 -0.62027344 13.51511719 -0.5625 12.3125 C-0.51029297 11.13365234 -0.45808594 9.95480469 -0.40429688 8.74023438 C-0.27453806 5.82655906 -0.13956868 2.91321922 0 0 Z " fill="#3D2223" transform="translate(686,274)"/>
<path d="M0 0 C1.65 0 3.3 0 5 0 C5.125 3.375 5.125 3.375 5 7 C4.34 7.66 3.68 8.32 3 9 C2.67 8.01 2.34 7.02 2 6 C1.34 6 0.68 6 0 6 C0 4.02 0 2.04 0 0 Z " fill="#94231F" transform="translate(791,692)"/>
<path d="M0 0 C-1.65 0.66 -3.3 1.32 -5 2 C-3.03177114 3.96822886 0.34808709 3.66248381 3 4 C3 4.33 3 4.66 3 5 C-2.98993047 5.3152595 -6.63560356 4.68219822 -12 2 C-12 1.67 -12 1.34 -12 1 C-3.96428571 -1.27678571 -3.96428571 -1.27678571 0 0 Z " fill="#8A211D" transform="translate(591,497)"/>
<path d="M0 0 C2.14336161 3.4766338 2.21277626 6.21229195 2.125 10.25 C2.10695313 11.32765625 2.08890625 12.4053125 2.0703125 13.515625 C2.04710937 14.33546875 2.02390625 15.1553125 2 16 C0.09681116 13.14521674 -0.4619099 11.58058692 -1.125 8.3125 C-1.29257812 7.50425781 -1.46015625 6.69601562 -1.6328125 5.86328125 C-1.75398437 5.24839844 -1.87515625 4.63351562 -2 4 C-1.34 4 -0.68 4 0 4 C0 2.68 0 1.36 0 0 Z " fill="#A83736" transform="translate(570,364)"/>
<path d="M0 0 C2 1 2 1 2.8515625 3.06640625 C3.10679687 3.89011719 3.36203125 4.71382812 3.625 5.5625 C3.88539063 6.38878906 4.14578125 7.21507812 4.4140625 8.06640625 C4.60742188 8.70449219 4.80078125 9.34257813 5 10 C4.34 10 3.68 10 3 10 C2.67 9.01 2.34 8.02 2 7 C1.34 6.67 0.68 6.34 0 6 C0.66 8.31 1.32 10.62 2 13 C1.34 12.67 0.68 12.34 0 12 C-0.44921875 10.0390625 -0.44921875 10.0390625 -0.6875 7.625 C-0.77386719 6.83351563 -0.86023438 6.04203125 -0.94921875 5.2265625 C-1 3 -1 3 0 0 Z " fill="#791C19" transform="translate(1006,677)"/>
<path d="M0 0 C0.66 0.33 1.32 0.66 2 1 C1.67 1.66 1.34 2.32 1 3 C1.66 3.33 2.32 3.66 3 4 C3 4.66 3 5.32 3 6 C0.03 6 -2.94 6 -6 6 C-5 3 -5 3 -2.5625 1.25 C-1.716875 0.8375 -0.87125 0.425 0 0 Z " fill="#862625" transform="translate(453,418)"/>
<path d="M0 0 C4.95 0 9.9 0 15 0 C13.90810185 5.45949074 13.31208438 6.01471081 9 9 C10.2808625 5.35446828 11.16671013 3.83328987 14 1 C9.38 1.33 4.76 1.66 0 2 C0 1.34 0 0.68 0 0 Z " fill="#873E40" transform="translate(630,351)"/>
<path d="M0 0 C0.99 0.33 1.98 0.66 3 1 C3 1.99 3 2.98 3 4 C3.66 4 4.32 4 5 4 C5.33 5.65 5.66 7.3 6 9 C5.34 9 4.68 9 4 9 C3.67 9.66 3.34 10.32 3 11 C2.01 7.37 1.02 3.74 0 0 Z " fill="#9F2621" transform="translate(1006,683)"/>
<path d="M0 0 C0 0.99 0 1.98 0 3 C-0.66 3.66 -1.32 4.32 -2 5 C-2 5.99 -2 6.98 -2 8 C-3.98 8.66 -5.96 9.32 -8 10 C-7.44449305 6.40094092 -6.25112752 5.00090201 -3.4375 2.75 C-2.79683594 2.22921875 -2.15617188 1.7084375 -1.49609375 1.171875 C-1.00238281 0.78515625 -0.50867188 0.3984375 0 0 Z " fill="#9B2927" transform="translate(614,471)"/>
<path d="M0 0 C0.66 0 1.32 0 2 0 C1.71125 0.680625 1.4225 1.36125 1.125 2.0625 C-0.12597355 5.32893093 -1.07447955 8.62846123 -2 12 C-2.66 11.01 -3.32 10.02 -4 9 C-4.99 9.495 -4.99 9.495 -6 10 C-4.63312778 6.01328937 -2.84804907 3.11505367 0 0 Z " fill="#925C5E" transform="translate(665,241)"/>
<path d="M0 0 C1.3805087 3.76668598 0.59568159 6.44789173 -0.4375 10.25 C-0.72496094 11.32765625 -1.01242187 12.4053125 -1.30859375 13.515625 C-1.53675781 14.33546875 -1.76492188 15.1553125 -2 16 C-2.33 16 -2.66 16 -3 16 C-3.37952295 9.80112515 -2.8352113 5.5522888 0 0 Z " fill="#5C1F1F" transform="translate(715,563)"/>
<path d="M0 0 C0.66 0.33 1.32 0.66 2 1 C1.125 5.875 1.125 5.875 0 7 C-0.23363881 8.84891946 -0.41303635 10.70488031 -0.5625 12.5625 C-0.64628906 13.57441406 -0.73007812 14.58632813 -0.81640625 15.62890625 C-0.87699219 16.41136719 -0.93757812 17.19382812 -1 18 C-1.33 18 -1.66 18 -2 18 C-2.054138 15.75026553 -2.09285491 13.50015617 -2.125 11.25 C-2.14820313 9.99703125 -2.17140625 8.7440625 -2.1953125 7.453125 C-2.01537302 4.27179508 -1.68998582 2.63478104 0 0 Z " fill="#6F2828" transform="translate(665,408)"/>
<path d="M0 0 C0.66 0.33 1.32 0.66 2 1 C2 1.99 2 2.98 2 4 C-0.3125 6 -0.3125 6 -3 8 C-4.0173873 8.98230498 -5.02596117 9.97469597 -6 11 C-5.55530671 5.96014269 -3.28656638 3.62365012 0 0 Z " fill="#893B3C" transform="translate(611,371)"/>
<path d="M0 0 C-1.47721422 3.45201639 -3.43794001 5.64961936 -6.125 8.25 C-6.84945313 8.95640625 -7.57390625 9.6628125 -8.3203125 10.390625 C-8.87460937 10.92171875 -9.42890625 11.4528125 -10 12 C-10 8.07290865 -8.72099538 7.1810287 -6.125 4.3125 C-5.04605469 3.10013672 -5.04605469 3.10013672 -3.9453125 1.86328125 C-2 0 -2 0 0 0 Z " fill="#2D1111" transform="translate(481,295)"/>
<path d="M0 0 C3.00617269 3.00617269 2.59585316 5.82381598 3 10 C2.01 9.34 1.02 8.68 0 8 C-0.99 8.495 -0.99 8.495 -2 9 C-1.125 1.125 -1.125 1.125 0 0 Z " fill="#321010" transform="translate(489,565)"/>
<path d="M0 0 C-2.52956528 3.0916909 -5.22454612 3.90931332 -9 5 C-9 4.34 -9 3.68 -9 3 C-9.66 2.34 -10.32 1.68 -11 1 C-7.26562152 0.12132271 -3.83225427 -0.08912219 0 0 Z " fill="#A6585A" transform="translate(635,312)"/>
<path d="M0 0 C2.22825644 2.22825644 2.69239369 3.65761628 3.625 6.625 C3.88539063 7.44226563 4.14578125 8.25953125 4.4140625 9.1015625 C4.60742188 9.72804688 4.80078125 10.35453125 5 11 C4.34 11 3.68 11 3 11 C2.67 10.01 2.34 9.02 2 8 C-0.01508358 7.26676204 -0.01508358 7.26676204 -2 7 C-2 6.34 -2 5.68 -2 5 C-1.34 5 -0.68 5 0 5 C0 3.35 0 1.7 0 0 Z " fill="#7B1C19" transform="translate(366,668)"/>
<path d="M0 0 C0.66 0 1.32 0 2 0 C6.09030544 5.14209827 6.09030544 5.14209827 5.75 8.375 C5.5025 8.91125 5.255 9.4475 5 10 C0.125 5.25 0.125 5.25 -1 3 C-0.34 3 0.32 3 1 3 C0.67 2.01 0.34 1.02 0 0 Z " fill="#8A2C2C" transform="translate(542,372)"/>
<path d="M0 0 C0.33 0 0.66 0 1 0 C1.05386629 2.12472576 1.09273071 4.24983652 1.125 6.375 C1.14820313 7.55835938 1.17140625 8.74171875 1.1953125 9.9609375 C1 13 1 13 -1 15 C-2.32 15 -3.64 15 -5 15 C-4.34 13.68 -3.68 12.36 -3 11 C-2.01 11.33 -1.02 11.66 0 12 C0 8.04 0 4.08 0 0 Z " fill="#8D4446" transform="translate(678,331)"/>
<path d="M0 0 C4.875 4.625 4.875 4.625 6 8 C5.0625 10.1875 5.0625 10.1875 4 12 C3.3291288 10.3767313 2.66342971 8.75132422 2 7.125 C1.62875 6.22007812 1.2575 5.31515625 0.875 4.3828125 C0 2 0 2 0 0 Z " fill="#883B3C" transform="translate(486,240)"/>
<path d="M0 0 C0.66 0.33 1.32 0.66 2 1 C-0.64 3.97 -3.28 6.94 -6 10 C-6.33 9.34 -6.66 8.68 -7 8 C-4.69 5.36 -2.38 2.72 0 0 Z " fill="#301516" transform="translate(593,356)"/>
<path d="M0 0 C0.66 0 1.32 0 2 0 C1.34 1.32 0.68 2.64 0 4 C-0.99 4 -1.98 4 -3 4 C-1.625 2 -1.625 2 0 0 Z M-6 4 C-5.01 4.33 -4.02 4.66 -3 5 C-4.65 6.32 -6.3 7.64 -8 9 C-7.34 7.35 -6.68 5.7 -6 4 Z " fill="#B65254" transform="translate(607,356)"/>
<path d="M0 0 C-1.32 1.32 -2.64 2.64 -4 4 C-4 3.34 -4 2.68 -4 2 C-5.65 3.32 -7.3 4.64 -9 6 C-9.66 5.67 -10.32 5.34 -11 5 C-4.85714286 -0.71428571 -4.85714286 -0.71428571 0 0 Z " fill="#994648" transform="translate(613,354)"/>
<path d="M0 0 C0.33 1.32 0.66 2.64 1 4 C1.66 4 2.32 4 3 4 C3 6.97 3 9.94 3 13 C2.67 13 2.34 13 2 13 C2 11.35 2 9.7 2 8 C1.34 8 0.68 8 0 8 C0 5.36 0 2.72 0 0 Z " fill="#6A2424" transform="translate(499,575)"/>
<path d="M0 0 C3.90381822 3.90381822 3.56244183 5.66179036 4 11 C3.67 10.34 3.34 9.68 3 9 C2.34 9 1.68 9 1 9 C0.67 6.03 0.34 3.06 0 0 Z " fill="#391313" transform="translate(553,570)"/>
<path d="M0 0 C-1.70828921 2.10633718 -2.52148416 2.93801608 -5.26171875 3.29296875 C-6.06222656 3.25816406 -6.86273437 3.22335937 -7.6875 3.1875 C-8.89986328 3.14689453 -8.89986328 3.14689453 -10.13671875 3.10546875 C-11.05904297 3.05326172 -11.05904297 3.05326172 -12 3 C-8.40198016 -0.59801984 -4.84291279 -0.09137571 0 0 Z " fill="#3A1B1C" transform="translate(611,352)"/>
<path d="M0 0 C0.33 0 0.66 0 1 0 C1.36630156 3.93774177 1.30233203 5.56539771 -1 8.875 C-1.66 9.57625 -2.32 10.2775 -3 11 C-2.44894091 7.0507432 -1.61064629 3.65079826 0 0 Z " fill="#3B1313" transform="translate(581,572)"/>
<path d="M0 0 C1.0625 1.8125 1.0625 1.8125 2 4 C0.77065985 7.68802044 -0.93859378 8.72356973 -4 11 C-2.7874262 7.27566618 -1.49140021 3.62197194 0 0 Z " fill="#2E0D0D" transform="translate(472,404)"/>
<path d="M0 0 C-1.49097658 3.7952131 -3.75700849 5.61042731 -7 8 C-4.18918919 0 -4.18918919 0 0 0 Z " fill="#A42C2A" transform="translate(560,443)"/>
<path d="M0 0 C0.66 0.33 1.32 0.66 2 1 C0.02 3.31 -1.96 5.62 -4 8 C-4.33 7.01 -4.66 6.02 -5 5 C-3.35 3.35 -1.7 1.7 0 0 Z " fill="#9C5051" transform="translate(598,321)"/>
<path d="M0 0 C0.66 1.32 1.32 2.64 2 4 C0.625 6 0.625 6 -1 8 C-1.66 8 -2.32 8 -3 8 C-1.125 2.25 -1.125 2.25 0 0 Z " fill="#8E2624" transform="translate(476,440)"/>
<path d="M0 0 C0.66 0 1.32 0 2 0 C2 1.98 2 3.96 2 6 C0.33333333 6 -1.33333333 6 -3 6 C-2 4 -1 2 0 0 Z " fill="#8A2A29" transform="translate(471,398)"/>
<path d="M0 0 C0.556875 0.144375 1.11375 0.28875 1.6875 0.4375 C4.11384195 1.02769128 6.54906345 1.523429 9 2 C9 2.33 9 2.66 9 3 C5.7 3 2.4 3 -1 3 C-0.67 2.01 -0.34 1.02 0 0 Z " fill="#B95052" transform="translate(613,371)"/>
<path d="M0 0 C0.66 0.99 1.32 1.98 2 3 C1.5390625 5.04296875 1.5390625 5.04296875 0.625 7.1875 C0.32851563 7.90292969 0.03203125 8.61835938 -0.2734375 9.35546875 C-0.51320313 9.89816406 -0.75296875 10.44085938 -1 11 C-1.33 11 -1.66 11 -2 11 C-1.85892253 9.54119891 -1.71197585 8.08296449 -1.5625 6.625 C-1.48128906 5.81289063 -1.40007813 5.00078125 -1.31640625 4.1640625 C-1 2 -1 2 0 0 Z " fill="#965C5E" transform="translate(619,252)"/>
<path d="M0 0 C0.99 0.33 1.98 0.66 3 1 C3.33 2.98 3.66 4.96 4 7 C3.34 7 2.68 7 2 7 C0.5393715 4.35261084 0 3.10551666 0 0 Z " fill="#AA2924" transform="translate(369,682)"/>
</svg>
